<svg width="335" height="33" viewBox="0 0 335 33" fill="none" xmlns="http://www.w3.org/2000/svg">
<mask id="mask0_146_28339" style="mask-type:alpha" maskUnits="userSpaceOnUse" x="0" y="0" width="335" height="33">
<path d="M0 0H335V33H0V0Z" fill="#D9D9D9"/>
</mask>
<g mask="url(#mask0_146_28339)">
<path d="M-24.5 -140H350.5V158H-24.5V-140Z" fill="url(#paint0_linear_146_28339)" fill-opacity="0.79"/>
<path d="M-14.5 -118C-14.5 -120.761 -12.2614 -123 -9.5 -123L335.5 -123C338.261 -123 340.5 -120.761 340.5 -118V143C340.5 145.761 338.261 148 335.5 148H-9.5C-12.2614 148 -14.5 145.761 -14.5 143L-14.5 -118Z" fill="#FFFEFE"/>
<path d="M251.923 1.12195C252.567 1.12195 253.029 1.56995 253.029 2.22795C253.029 2.81595 252.791 3.72595 252.553 4.67795C252.287 5.75595 252.133 7.18395 252.133 7.86995C252.133 8.16395 252.147 8.47195 252.175 8.70995C252.175 8.80795 252.021 8.93395 251.811 8.93395C251.755 8.93395 251.699 8.86395 251.699 8.79395C251.727 8.55595 251.741 8.27595 251.741 7.95395C251.741 7.22595 251.587 5.76995 251.335 4.80395C251.069 3.78195 250.803 2.82995 250.803 2.22795C250.803 1.58395 251.265 1.12195 251.923 1.12195ZM251.895 9.87195C252.497 9.87195 252.973 10.3479 252.973 10.9359C252.973 11.5379 252.497 12.0139 251.895 12.0139C251.307 12.0139 250.831 11.5379 250.831 10.9359C250.831 10.3479 251.307 9.87195 251.895 9.87195Z" fill="#DC0B28"/>
<path d="M241.437 3.79601C241.731 2.50801 241.801 1.97601 241.801 1.72401C241.801 1.33201 241.675 1.06601 241.227 0.842011C241.157 0.814012 241.143 0.814012 241.143 0.772012C241.143 0.730011 241.199 0.702012 241.269 0.674012C241.479 0.590011 241.815 0.562012 241.941 0.562012C242.109 0.562012 242.459 0.730011 242.823 1.02401C243.299 1.41601 243.439 1.68201 243.439 1.94801C243.439 2.10201 243.355 2.28401 243.229 2.48001C243.061 2.77401 242.949 3.16601 242.711 3.96401C243.411 4.14601 243.607 4.38401 243.607 4.76201C243.607 5.02801 243.369 5.26601 243.061 5.26601C242.907 5.26601 242.641 5.23801 242.333 5.19601C242.109 5.93801 241.871 6.83401 241.689 7.68801C241.913 7.71601 242.067 7.71601 242.207 7.71601C242.319 7.71601 242.403 7.71601 242.501 7.70201C243.257 7.89801 243.579 8.10801 243.579 8.47201C243.579 8.87801 243.131 9.04601 242.557 9.04601C242.165 9.04601 241.927 9.01801 241.493 8.94801C241.437 9.32601 241.409 9.67601 241.409 10.04C241.409 11.216 241.927 11.776 243.159 11.776C244.209 11.776 245.343 10.852 245.343 9.32601C245.343 8.10801 244.979 7.22601 243.845 6.07801C243.817 6.05001 243.803 6.03601 243.803 6.00801C243.803 5.96601 243.831 5.93801 243.887 5.93801C243.929 5.93801 243.985 5.95201 244.041 5.98001C245.077 6.48401 245.483 6.86201 246.001 7.43601C246.645 8.15001 246.925 8.83601 246.925 9.66201C246.925 11.468 245.203 12.756 243.355 12.756C241.367 12.756 240.429 11.412 240.429 9.63401C240.429 9.17201 240.457 8.89201 240.457 8.76601C239.547 8.52801 238.539 7.94001 238.539 6.89001C238.539 5.89601 239.365 5.19601 240.373 4.72001C239.435 4.60801 238.721 4.06201 238.483 3.20801C238.455 3.09601 238.441 3.02601 238.441 2.99801C238.441 2.94201 238.469 2.90001 238.511 2.90001C238.539 2.90001 238.553 2.91401 238.595 2.97001C238.973 3.36201 239.869 3.67001 241.437 3.79601ZM241.115 5.14001C239.771 5.40601 239.099 5.79801 239.099 6.58201C239.099 7.07201 239.701 7.45001 240.597 7.57601C240.807 6.54001 240.933 5.93801 241.115 5.14001Z" fill="#DC0B28"/>
<path d="M228.837 8.10806V7.66006C227.241 8.92006 225.743 9.55006 224.707 9.87206C224.595 9.90006 224.567 9.91406 224.497 9.91406C224.427 9.91406 224.385 9.87206 224.385 9.80206C224.385 9.74606 224.427 9.70406 224.539 9.63406C226.947 8.26206 228.865 6.24606 229.817 4.93006C229.957 4.73406 230.083 4.53806 230.083 4.35606C230.083 4.25806 229.957 4.04806 229.705 3.88006C229.649 3.83806 229.579 3.79606 229.579 3.75406C229.579 3.71206 229.621 3.68406 229.705 3.65606C229.859 3.61406 230.153 3.58606 230.279 3.58606C230.503 3.58606 230.867 3.79606 231.231 4.13206C231.581 4.45406 231.735 4.67806 231.735 4.87406C231.735 5.02806 231.609 5.18206 231.329 5.35006C230.811 5.89606 230.377 6.33006 229.915 6.76406C230.041 6.91806 230.125 7.04406 230.125 7.11406C230.125 7.17006 230.125 7.25406 230.111 7.31006C230.083 7.40806 230.083 7.49206 230.083 7.80006C230.083 8.48606 230.097 9.97006 230.111 10.5581L230.139 11.8181C230.139 12.4621 229.859 12.7001 229.509 12.7001C229.187 12.7001 229.005 12.5461 228.809 12.0561C228.711 11.7901 228.627 11.5241 228.627 11.3421C228.627 11.2161 228.669 11.1041 228.711 10.9641C228.753 10.8241 228.795 10.5581 228.809 10.3481C228.823 10.0261 228.837 9.56406 228.837 8.10806Z" fill="#DC0B28"/>
<path d="M216.522 5.62995C217.068 6.06395 217.292 6.34395 217.292 6.55395C217.292 6.67995 217.278 6.76395 217.208 6.86195C217.096 7.00195 217.068 7.11395 217.012 7.32395C216.228 10.1239 214.786 11.7059 212.644 12.6299C212.574 12.6579 212.504 12.6719 212.462 12.6719C212.378 12.6719 212.336 12.6159 212.336 12.5459C212.336 12.5179 212.35 12.4759 212.406 12.4339C214.086 11.1179 215.122 9.03195 215.472 7.05795C215.542 6.70795 215.556 6.46995 215.556 6.31595C215.556 6.10595 215.486 5.92395 215.332 5.76995C214.52 5.86795 213.75 5.99395 212.91 6.14795C212.728 6.17595 212.546 6.23195 212.35 6.32995C212.182 6.42795 212.042 6.46995 211.916 6.46995C211.734 6.46995 211.412 6.30195 211.02 5.93795C210.698 5.62995 210.474 5.39195 210.474 5.13995C210.474 4.92995 210.544 4.76195 210.6 4.76195C210.656 4.76195 210.712 4.78995 210.824 4.85995C211.09 5.02795 211.44 5.15395 211.734 5.15395C211.958 5.15395 212.084 5.15395 212.392 5.11195C214.478 4.85995 216.27 4.66395 218.202 4.46795C218.664 4.42595 219 4.36995 219.21 4.24395C219.294 4.18795 219.434 4.13195 219.56 4.13195C219.728 4.13195 220.022 4.17395 220.596 4.49595C220.918 4.67795 221.156 4.88795 221.156 5.19595C221.156 5.55995 220.932 5.67195 220.61 5.67195C220.484 5.67195 220.274 5.65795 219.994 5.61595C219.546 5.55995 219.07 5.54595 218.538 5.54595C217.95 5.54595 217.446 5.55995 216.522 5.62995ZM212.588 1.91995C212.938 2.08795 213.274 2.15795 213.708 2.15795C214.058 2.15795 214.856 2.05995 215.584 1.91995C216.522 1.75195 216.816 1.65395 217.054 1.51395C217.264 1.38795 217.362 1.34595 217.516 1.34595C217.824 1.34595 218.076 1.40195 218.468 1.56995C218.888 1.75195 219.042 1.97595 219.042 2.24195C219.042 2.56395 218.818 2.71795 218.496 2.75995C217.32 2.89995 215.85 3.10995 214.716 3.27795C214.436 3.31995 214.268 3.34795 214.198 3.36195C214.044 3.38995 213.918 3.40395 213.82 3.40395C213.624 3.40395 213.358 3.24995 212.896 2.84395C212.672 2.63395 212.504 2.42395 212.462 2.24195C212.448 2.17195 212.434 2.08795 212.434 1.94795C212.434 1.91995 212.448 1.87795 212.476 1.87795C212.504 1.87795 212.532 1.89195 212.588 1.91995Z" fill="#DC0B28"/>
<path d="M205.476 5.88201C205.644 5.88201 206.12 5.95201 206.358 6.05001C206.89 6.27401 207.058 6.47001 207.058 6.83401C207.058 7.24001 206.694 7.35201 206.232 7.35201C205.882 7.35201 204.972 7.33801 204.426 7.33801C203.194 7.33801 200.982 7.45001 198.938 7.67401C198.588 7.70201 198.434 7.74401 198.238 7.85601C198.084 7.94001 197.972 7.96801 197.832 7.96801C197.692 7.96801 197.398 7.82801 197.02 7.46401C196.488 6.96001 196.348 6.66601 196.348 6.47001C196.348 6.34401 196.376 6.13401 196.432 5.91001C196.446 5.84001 196.488 5.81201 196.516 5.81201C196.544 5.81201 196.6 5.84001 196.642 5.88201C197.076 6.24601 197.328 6.40001 197.734 6.40001C197.986 6.40001 198.266 6.38601 198.56 6.37201C200.982 6.24601 202.382 6.14801 204.09 6.02201C204.44 5.99401 204.58 5.98001 204.944 5.93801C205.056 5.92401 205.35 5.88201 205.476 5.88201Z" fill="#DC0B28"/>
<path d="M192.05 1.64001C192.778 1.64001 193.408 2.27001 193.408 2.99801C193.408 3.75401 192.778 4.35601 192.05 4.35601C191.294 4.35601 190.692 3.75401 190.692 2.99801C190.692 2.27001 191.294 1.64001 192.05 1.64001ZM192.05 2.10201C191.56 2.10201 191.126 2.53601 191.126 2.99801C191.126 3.48801 191.56 3.92201 192.05 3.92201C192.512 3.92201 192.946 3.48801 192.946 2.99801C192.946 2.53601 192.512 2.10201 192.05 2.10201ZM193.156 8.36001C193.156 9.20001 192.792 9.52202 192.19 9.52202C191.784 9.52202 191.462 9.17201 191.28 8.51401C190.874 7.00201 190.034 5.51801 188.704 4.66401C188.648 4.62201 188.634 4.59401 188.634 4.55201C188.634 4.51001 188.676 4.44001 188.746 4.44001C188.844 4.44001 189.012 4.46801 189.152 4.51001C191.21 5.07001 193.156 6.72201 193.156 8.36001ZM181.886 10.236C181.704 10.292 181.592 10.32 181.55 10.32C181.508 10.32 181.466 10.292 181.466 10.25C181.466 10.194 181.494 10.152 181.55 10.11C182.978 9.08801 184.126 7.61801 184.854 6.14801C184.952 5.95201 185.008 5.78401 185.008 5.58801C185.008 5.36401 184.826 5.11201 184.35 4.91601C184.308 4.90201 184.266 4.87401 184.266 4.83201C184.266 4.79001 184.322 4.73401 184.392 4.70601C184.7 4.56601 185.036 4.51001 185.232 4.51001C185.442 4.51001 185.862 4.72001 186.282 5.02801C186.772 5.37801 187.01 5.63001 187.01 5.91001C187.01 6.07801 186.954 6.23201 186.772 6.35801C186.59 6.48401 186.478 6.59601 186.324 6.80601C185.19 8.30401 183.622 9.63402 181.886 10.236Z" fill="#DC0B28"/>
<path d="M176.832 5.51803C176.79 5.49003 176.776 5.46203 176.776 5.42003C176.776 5.37803 176.832 5.35003 176.888 5.35003C177.378 5.35003 178.036 5.56003 178.442 5.79803C178.918 6.09203 179.184 6.40003 179.184 6.77803C179.184 7.11403 178.988 7.35203 178.694 7.35203C178.442 7.35203 178.288 7.21203 178.078 6.82003C177.896 6.48403 177.448 5.91003 176.832 5.51803ZM178.064 4.55203C178.008 4.52403 177.994 4.49603 177.994 4.46803C177.994 4.42603 178.008 4.39803 178.092 4.38403C178.218 4.37003 178.316 4.37003 178.456 4.37003C178.792 4.37003 179.324 4.49603 179.646 4.62203C180.066 4.80403 180.542 5.09803 180.542 5.60203C180.542 5.95203 180.332 6.12003 180.052 6.12003C179.814 6.12003 179.674 5.99403 179.52 5.75603C179.212 5.29403 178.652 4.83203 178.064 4.55203ZM174.718 3.72603L174.704 3.68403C173.22 4.23003 172.114 4.67803 170.798 5.30803C170.644 5.37803 170.532 5.44803 170.434 5.50403C170.294 5.60203 170.154 5.64403 170 5.64403C169.692 5.64403 169.272 5.39203 168.796 4.94403C168.404 4.53803 168.264 4.24403 168.264 3.93603C168.264 3.85203 168.264 3.75403 168.278 3.69803C168.292 3.65603 168.292 3.64203 168.32 3.64203C168.348 3.64203 168.362 3.65603 168.404 3.68403C168.74 3.92203 169.034 4.04803 169.328 4.04803C169.552 4.04803 169.93 4.02003 170.28 3.92203C172.352 3.33403 174.452 2.62003 175.698 2.13003C176.202 1.93403 176.384 1.85003 176.552 1.71003C176.664 1.61203 176.888 1.55603 177.084 1.55603C177.378 1.55603 177.84 1.64003 178.288 1.79403C178.848 1.99003 178.96 2.18603 178.96 2.53603C178.96 2.91403 178.652 3.08203 178.092 3.08203C177.952 3.08203 177.798 3.08203 177.658 3.08203C176.846 3.08203 176.356 3.23603 175.796 3.53003C174.438 4.21603 173.57 5.65803 173.57 7.22603C173.57 8.48603 174.242 9.56403 175.292 10.082C175.684 10.278 176.286 10.516 177 10.67C177.784 10.852 178.05 11.23 178.05 11.678C178.05 12.21 177.728 12.49 177.042 12.49C176.286 12.49 175.082 11.986 174.228 11.258C173.262 10.446 172.66 9.34003 172.66 8.12203C172.66 6.34403 173.206 5.16803 174.718 3.72603Z" fill="#DC0B28"/>
<path d="M158.142 3.152C158.212 2.956 158.282 2.69 158.352 2.354C158.394 2.13 158.436 1.906 158.436 1.682C158.436 1.458 158.282 1.234 157.722 0.954004C157.694 0.940004 157.652 0.912003 157.652 0.884004C157.652 0.856003 157.68 0.814004 157.778 0.772003C157.974 0.674004 158.366 0.604004 158.506 0.604004C158.702 0.604004 159.038 0.702003 159.304 0.856003C159.738 1.08 159.934 1.276 159.934 1.444C159.934 1.626 159.878 1.738 159.738 1.92C159.584 2.228 159.444 2.578 159.318 2.83C159.766 2.69 160.018 2.578 160.158 2.48C160.984 2.48 161.306 2.816 161.306 3.11C161.306 3.376 161.124 3.544 160.914 3.614C160.284 3.824 159.724 4.02 158.828 4.3C158.086 5.868 157.442 7.086 156.672 8.346C156.266 9.004 156.014 9.326 155.846 9.494C155.734 9.606 155.482 9.69 155.342 9.69C155.076 9.69 154.768 9.424 154.768 8.752C154.768 8.374 154.908 8.08 155.02 7.912C155.216 7.758 155.468 7.534 155.706 7.268C156.406 6.484 157.092 5.504 157.624 4.468C157.19 4.608 156.91 4.678 156.672 4.748C156.476 4.804 156.224 4.846 156.07 4.846C155.888 4.846 155.636 4.846 155.3 4.566C154.964 4.272 154.698 3.908 154.558 3.572C154.53 3.516 154.516 3.474 154.516 3.432C154.516 3.404 154.544 3.39 154.572 3.39C154.6 3.39 154.656 3.418 154.684 3.432C154.992 3.6 155.328 3.67 155.664 3.67C155.916 3.67 156.266 3.642 156.49 3.6C157.092 3.488 157.652 3.334 158.142 3.152ZM160.83 9.508C160.858 9.088 160.844 8.878 160.886 8.052C160.97 6.54 161.642 5.798 162.566 5.378C162.174 5.112 161.586 4.902 160.956 4.874C160.914 4.874 160.844 4.846 160.844 4.804C160.844 4.762 160.886 4.734 160.97 4.692C161.376 4.538 162.076 4.482 162.538 4.482C163.154 4.482 163.798 4.65 164.274 4.902C164.848 5.196 165.128 5.56 165.128 5.938C165.128 6.316 164.848 6.484 164.526 6.484C164.372 6.484 164.162 6.386 163.868 6.26C163.448 6.078 163.07 5.98 162.692 5.98C162.174 5.98 161.796 6.288 161.796 7.058C161.796 7.422 161.838 7.8 161.866 8.206C161.894 8.542 161.978 8.99 162.076 9.662C162.916 9.942 163.546 10.236 164.022 10.558C164.498 10.88 164.708 11.132 164.708 11.552C164.708 11.944 164.4 12.224 164.05 12.224C163.812 12.224 163.518 12.126 163.252 11.86C162.846 11.468 162.482 11.188 162.034 10.936C161.796 12.154 160.886 12.672 159.584 12.672C158.352 12.672 157.316 11.972 157.316 11.048C157.316 10.124 158.338 9.424 159.696 9.424C160.172 9.424 160.48 9.452 160.83 9.508ZM160.69 10.488C160.284 10.306 159.724 10.18 159.178 10.18C158.478 10.18 157.708 10.446 157.708 10.95C157.708 11.328 158.212 11.622 159.01 11.622C159.976 11.622 160.592 11.3 160.69 10.488Z" fill="#DC0B28"/>
<path d="M142.994 7.72996C143.568 7.28196 144.338 7.01596 144.87 7.01596C145.626 7.01596 146.424 7.51996 146.564 8.65396C146.634 9.17196 146.662 9.56396 146.69 9.84396C146.774 10.572 146.998 10.796 147.642 10.796C148.188 10.796 149.084 10.516 149.728 9.98396C150.302 9.50796 151.002 8.65396 151.688 7.21196C151.716 7.15596 151.744 7.14196 151.786 7.14196C151.828 7.14196 151.87 7.16996 151.87 7.22596C151.87 7.28196 151.842 7.46396 151.814 7.58996C151.436 9.24196 151.002 10.166 150.162 11.048C149.308 11.944 148.328 12.322 147.432 12.322C146.326 12.322 145.5 11.678 145.472 10.32C145.458 9.64796 145.444 9.11596 145.402 8.54196C145.36 7.92596 145.052 7.56196 144.59 7.56196C143.568 7.56196 142.658 8.63996 142.252 9.50797C141.972 10.096 141.776 10.67 141.594 11.216C141.412 11.776 141.188 12.112 140.768 12.112C140.348 12.112 140.054 11.832 140.054 11.272C140.054 10.838 140.138 10.502 140.362 10.096C140.446 9.94196 140.614 9.67596 140.95 9.14396C142.336 6.88996 143.358 5.11196 144.492 2.96996C144.702 2.57796 144.772 2.26996 144.772 2.05996C144.772 1.83596 144.604 1.58396 144.198 1.38796C144.072 1.33196 144.016 1.28996 144.016 1.24796C144.016 1.19196 144.044 1.16396 144.128 1.13596C144.366 1.06596 144.646 1.03796 144.968 1.03796C145.192 1.03796 145.598 1.21996 145.948 1.51396C146.396 1.90596 146.578 2.15796 146.578 2.40996C146.578 2.68996 146.494 2.78796 146.312 2.96996C146.032 3.26396 145.766 3.66996 145.654 3.82396C144.8 4.91596 144.086 6.03596 142.994 7.72996Z" fill="#DC0B28"/>
<path d="M134.37 7.26802C134.566 6.62402 134.636 6.33002 134.636 6.05002C134.636 5.78402 134.454 5.63002 134.076 5.44802C133.978 5.40602 133.964 5.37802 133.964 5.33602C133.964 5.29402 133.992 5.25202 134.076 5.22402C134.216 5.16802 134.524 5.07002 134.79 5.07002C134.986 5.07002 135.406 5.29402 135.756 5.58802C136.078 5.88202 136.134 6.09202 136.134 6.33002C136.134 6.58202 135.966 7.15602 135.742 7.78602C136.274 8.03802 136.89 8.33202 137.254 8.57002C137.674 8.86402 137.982 9.17202 137.982 9.57802C137.982 10.012 137.814 10.25 137.31 10.25C137.03 10.25 136.848 10.166 136.456 9.84402C136.148 9.60602 135.7 9.32602 135.224 9.04602C134.356 10.558 133.614 11.188 132.494 11.832C131.752 12.252 130.828 12.588 129.89 12.714C129.82 12.728 129.722 12.742 129.666 12.742C129.61 12.742 129.568 12.728 129.568 12.672C129.568 12.616 129.582 12.588 129.666 12.546C130.674 12.126 131.766 11.398 132.466 10.642C133.11 9.94202 133.558 9.34002 133.964 8.41602C132.83 7.89802 131.808 7.57602 130.688 7.40802C129.75 8.87802 129.078 9.62002 128.518 10.068C127.944 10.516 127.426 10.712 126.992 10.712C126.488 10.712 126.11 10.166 126.11 9.52202C126.11 8.52802 126.572 7.84202 127.244 7.38002C127.93 6.90402 128.882 6.52602 129.89 6.48402C130.59 5.21002 131.038 4.20202 131.388 3.23602C131.416 3.15202 131.444 2.98402 131.444 2.91402C131.444 2.80202 131.36 2.71802 131.262 2.71802C131.066 2.71802 130.506 2.94202 129.806 3.34802C129.526 3.50202 129.33 3.60002 129.204 3.60002C128.924 3.60002 128.644 3.39002 128.322 2.90002C128.084 2.53602 128.07 2.29802 128.07 2.08802C128.07 2.00402 128.112 1.87802 128.154 1.78002C128.168 1.73802 128.182 1.72402 128.21 1.72402C128.238 1.72402 128.238 1.72402 128.252 1.75202C128.504 2.00402 128.882 2.28402 129.218 2.28402C129.4 2.28402 129.638 2.24202 129.876 2.18602C130.422 2.04602 130.954 1.83602 131.206 1.72402C131.388 1.64002 131.528 1.54202 131.626 1.41602C131.724 1.30402 131.878 1.19202 131.962 1.19202C132.102 1.19202 132.396 1.29002 132.816 1.64002C133.264 1.97602 133.418 2.21402 133.418 2.41002C133.418 2.53602 133.39 2.64802 133.222 2.80202C133.096 2.91402 133.012 3.05402 132.942 3.19402C132.242 4.51002 131.794 5.37802 131.164 6.55402C132.438 6.70802 133.306 6.91802 134.37 7.26802ZM129.414 7.29602C128.462 7.29602 127.804 7.54802 127.426 7.81402C127.09 8.05202 126.81 8.38802 126.81 8.82202C126.81 9.32602 127.034 9.57802 127.216 9.57802C127.398 9.57802 127.552 9.52202 127.776 9.34002C128.252 8.94802 128.854 8.23402 129.414 7.29602Z" fill="#DC0B28"/>
<path d="M122.642 1.12195C123.286 1.12195 123.748 1.56995 123.748 2.22795C123.748 2.81595 123.51 3.72595 123.272 4.67795C123.006 5.75595 122.852 7.18395 122.852 7.86995C122.852 8.16395 122.866 8.47195 122.894 8.70995C122.894 8.80795 122.74 8.93395 122.53 8.93395C122.474 8.93395 122.418 8.86395 122.418 8.79395C122.446 8.55595 122.46 8.27595 122.46 7.95395C122.46 7.22595 122.306 5.76995 122.054 4.80395C121.788 3.78195 121.522 2.82995 121.522 2.22795C121.522 1.58395 121.984 1.12195 122.642 1.12195ZM122.614 9.87195C123.216 9.87195 123.692 10.3479 123.692 10.9359C123.692 11.5379 123.216 12.0139 122.614 12.0139C122.026 12.0139 121.55 11.5379 121.55 10.9359C121.55 10.3479 122.026 9.87195 122.614 9.87195Z" fill="#DC0B28"/>
<path d="M112.156 3.79601C112.45 2.50801 112.52 1.97601 112.52 1.72401C112.52 1.33201 112.394 1.06601 111.946 0.842011C111.876 0.814012 111.862 0.814012 111.862 0.772012C111.862 0.730011 111.918 0.702012 111.988 0.674012C112.198 0.590011 112.534 0.562012 112.66 0.562012C112.828 0.562012 113.178 0.730011 113.542 1.02401C114.018 1.41601 114.158 1.68201 114.158 1.94801C114.158 2.10201 114.074 2.28401 113.948 2.48001C113.78 2.77401 113.668 3.16601 113.43 3.96401C114.13 4.14601 114.326 4.38401 114.326 4.76201C114.326 5.02801 114.088 5.26601 113.78 5.26601C113.626 5.26601 113.36 5.23801 113.052 5.19601C112.828 5.93801 112.59 6.83401 112.408 7.68801C112.632 7.71601 112.786 7.71601 112.926 7.71601C113.038 7.71601 113.122 7.71601 113.22 7.70201C113.976 7.89801 114.298 8.10801 114.298 8.47201C114.298 8.87801 113.85 9.04601 113.276 9.04601C112.884 9.04601 112.646 9.01801 112.212 8.94801C112.156 9.32601 112.128 9.67601 112.128 10.04C112.128 11.216 112.646 11.776 113.878 11.776C114.928 11.776 116.062 10.852 116.062 9.32601C116.062 8.10801 115.698 7.22601 114.564 6.07801C114.536 6.05001 114.522 6.03601 114.522 6.00801C114.522 5.96601 114.55 5.93801 114.606 5.93801C114.648 5.93801 114.704 5.95201 114.76 5.98001C115.796 6.48401 116.202 6.86201 116.72 7.43601C117.364 8.15001 117.644 8.83601 117.644 9.66201C117.644 11.468 115.922 12.756 114.074 12.756C112.086 12.756 111.148 11.412 111.148 9.63401C111.148 9.17201 111.176 8.89201 111.176 8.76601C110.266 8.52801 109.258 7.94001 109.258 6.89001C109.258 5.89601 110.084 5.19601 111.092 4.72001C110.154 4.60801 109.44 4.06201 109.202 3.20801C109.174 3.09601 109.16 3.02601 109.16 2.99801C109.16 2.94201 109.188 2.90001 109.23 2.90001C109.258 2.90001 109.272 2.91401 109.314 2.97001C109.692 3.36201 110.588 3.67001 112.156 3.79601ZM111.834 5.14001C110.49 5.40601 109.818 5.79801 109.818 6.58201C109.818 7.07201 110.42 7.45001 111.316 7.57601C111.526 6.54001 111.652 5.93801 111.834 5.14001Z" fill="#DC0B28"/>
<path d="M98.0438 7.04396L98.0998 7.08596C99.0518 6.55396 99.8079 6.32996 100.704 6.32996C102.692 6.32996 104.092 7.53396 104.092 9.11596C104.092 11.286 102.146 12.616 99.6399 12.616C98.1559 12.616 97.1339 11.888 97.1339 10.964C97.1339 10.166 97.7919 9.63396 98.8139 9.63396C99.7799 9.63396 100.578 10.18 101.11 11.202C101.936 10.754 102.496 9.99796 102.496 8.73796C102.496 7.65996 101.712 6.93196 100.354 6.93196C98.8139 6.93196 97.4278 8.17796 96.4198 9.74596C96.1958 10.096 95.9719 10.236 95.7479 10.236C95.3839 10.236 95.0479 9.96996 95.0479 9.36796C95.0479 8.90596 95.2579 8.48596 95.5659 8.20596C95.7059 8.07996 95.9159 7.89796 96.0139 7.79996C96.6859 7.12796 97.3018 6.37196 98.0858 5.40596C98.7718 4.56596 99.5839 3.45996 99.9339 2.94196C99.9759 2.87196 99.9899 2.81596 99.9899 2.77396C99.9899 2.73196 99.9619 2.68996 99.9059 2.68996C99.8499 2.68996 99.7239 2.74596 99.5419 2.82996C98.6739 3.23596 97.9739 3.58596 97.5959 3.82396C97.4979 3.87996 97.3439 3.94996 97.2319 3.94996C97.0639 3.94996 96.8119 3.83796 96.5179 3.45996C96.2519 3.10996 96.0839 2.88596 96.0839 2.60596C96.0839 2.38196 96.1119 2.22796 96.1679 2.00396C96.1819 1.94796 96.2099 1.93396 96.2519 1.93396C96.2799 1.93396 96.3078 1.94796 96.3498 2.00396C96.6158 2.28396 96.8538 2.52196 97.2458 2.52196C97.6798 2.52196 98.3798 2.36796 99.8918 1.77996C100.13 1.68196 100.326 1.55596 100.424 1.45796C100.55 1.33196 100.704 1.26196 100.816 1.26196C100.97 1.26196 101.222 1.35996 101.516 1.59796C101.964 1.94796 102.076 2.11596 102.076 2.33996C102.076 2.50796 101.936 2.66196 101.796 2.77396C101.53 2.99796 101.082 3.44596 100.578 4.01996C99.6399 5.11196 98.8278 6.13396 98.0438 7.04396ZM99.9479 11.594C99.5699 10.712 98.9819 10.25 98.3659 10.25C97.9599 10.25 97.6379 10.502 97.6379 10.866C97.6379 11.342 98.1979 11.692 99.0799 11.692C99.3459 11.692 99.6399 11.678 99.9479 11.594Z" fill="#DC0B28"/>
<path d="M86.368 3.76805H85.752C84.912 4.94405 83.96 5.91005 83.288 6.44205C83.218 6.49805 83.12 6.40005 83.162 6.33005C83.904 5.23805 84.786 3.05405 85.248 1.15005C85.332 0.828052 85.402 0.478052 85.444 0.128052C87.544 0.716052 87.698 0.842052 87.698 1.06605C87.698 1.20605 87.544 1.36005 87.04 1.52805C86.746 2.20005 86.368 2.85805 85.948 3.47405H89.714C90.638 2.29805 90.666 2.27005 90.806 2.27005C90.946 2.27005 91.03 2.32605 91.688 2.98405C92.066 3.36205 92.164 3.46005 92.164 3.58605C92.164 3.72605 92.108 3.76805 92.01 3.76805H88.3C88.286 3.86605 88.202 3.93605 87.992 4.04805V6.28805H89.476C90.288 5.23805 90.316 5.22405 90.442 5.22405C90.568 5.22405 90.624 5.23805 91.212 5.82605C91.646 6.26005 91.702 6.31605 91.702 6.41405C91.702 6.54005 91.646 6.58205 91.548 6.58205H87.992V9.15805H89.462C90.26 8.10805 90.288 8.08005 90.414 8.08005C90.554 8.08005 90.596 8.10805 91.212 8.69605C91.66 9.13005 91.702 9.18605 91.702 9.28405C91.702 9.41005 91.646 9.45205 91.548 9.45205H87.992C88.02 11.0761 88.062 12.2661 88.062 12.7001C88.062 13.0641 87.782 13.2601 86.984 13.2601C86.48 13.2601 86.354 13.1341 86.354 12.7841C86.354 12.3921 86.396 10.5861 86.396 8.54205V4.49605C86.396 4.25805 86.382 4.00605 86.368 3.76805ZM81.062 9.52205L81.104 5.18205C80.292 6.13405 79.466 6.90405 78.836 7.32405C78.766 7.36605 78.654 7.28205 78.71 7.21205C79.69 5.99405 81.006 3.33405 81.734 1.13605C81.846 0.800052 81.944 0.492052 82.028 0.128052C83.918 0.856052 84.1 1.02405 84.1 1.22005C84.1 1.41605 83.974 1.52805 83.47 1.69605C83.078 2.46605 82.588 3.25005 82.056 3.97805C82.938 4.31405 83.036 4.39805 83.036 4.56605C83.036 4.69205 82.952 4.79005 82.602 4.93005V8.06605C82.602 11.1041 82.616 12.3501 82.616 12.7001C82.616 13.0921 82.238 13.2601 81.524 13.2601C81.09 13.2601 80.992 13.1761 80.992 12.8121C80.992 12.4481 81.048 11.3141 81.062 9.52205Z" fill="#DC0B28"/>
<path d="M74.566 5.51803C74.524 5.49003 74.51 5.46203 74.51 5.42003C74.51 5.37803 74.566 5.35003 74.622 5.35003C75.112 5.35003 75.7701 5.56003 76.1761 5.79803C76.652 6.09203 76.918 6.40003 76.918 6.77803C76.918 7.11403 76.722 7.35203 76.428 7.35203C76.176 7.35203 76.022 7.21203 75.812 6.82003C75.63 6.48403 75.182 5.91003 74.566 5.51803ZM75.798 4.55203C75.742 4.52403 75.728 4.49603 75.728 4.46803C75.728 4.42603 75.742 4.39803 75.826 4.38403C75.952 4.37003 76.0501 4.37003 76.1901 4.37003C76.526 4.37003 77.058 4.49603 77.38 4.62203C77.8 4.80403 78.276 5.09803 78.276 5.60203C78.276 5.95203 78.066 6.12003 77.786 6.12003C77.548 6.12003 77.408 5.99403 77.254 5.75603C76.946 5.29403 76.386 4.83203 75.798 4.55203ZM72.452 3.72603L72.438 3.68403C70.954 4.23003 69.848 4.67803 68.532 5.30803C68.378 5.37803 68.266 5.44803 68.168 5.50403C68.028 5.60203 67.888 5.64403 67.734 5.64403C67.426 5.64403 67.006 5.39203 66.53 4.94403C66.138 4.53803 65.998 4.24403 65.998 3.93603C65.998 3.85203 65.998 3.75403 66.012 3.69803C66.026 3.65603 66.026 3.64203 66.054 3.64203C66.082 3.64203 66.096 3.65603 66.138 3.68403C66.474 3.92203 66.768 4.04803 67.062 4.04803C67.286 4.04803 67.664 4.02003 68.014 3.92203C70.086 3.33403 72.186 2.62003 73.432 2.13003C73.936 1.93403 74.118 1.85003 74.286 1.71003C74.398 1.61203 74.622 1.55603 74.818 1.55603C75.112 1.55603 75.574 1.64003 76.022 1.79403C76.582 1.99003 76.694 2.18603 76.694 2.53603C76.694 2.91403 76.386 3.08203 75.826 3.08203C75.686 3.08203 75.532 3.08203 75.392 3.08203C74.58 3.08203 74.09 3.23603 73.53 3.53003C72.172 4.21603 71.304 5.65803 71.304 7.22603C71.304 8.48603 71.976 9.56403 73.026 10.082C73.418 10.278 74.02 10.516 74.734 10.67C75.518 10.852 75.784 11.23 75.784 11.678C75.784 12.21 75.462 12.49 74.776 12.49C74.02 12.49 72.816 11.986 71.962 11.258C70.996 10.446 70.394 9.34003 70.394 8.12203C70.394 6.34403 70.94 5.16803 72.452 3.72603Z" fill="#DC0B28"/>
<path d="M52.9642 6.46994H56.5342C56.5342 4.94394 56.5342 4.64994 56.4362 3.90794C57.1082 3.97794 57.5842 4.04794 57.9342 4.10394C58.5362 3.30594 59.1102 2.46594 59.6282 1.59794H54.3922C53.9022 1.59794 53.3562 1.62594 52.5582 1.69594L52.4182 1.20594C53.3422 1.27594 53.9022 1.30394 54.3922 1.30394H59.5302C60.2862 0.519943 60.3282 0.491943 60.4962 0.491943C60.6782 0.491943 60.7482 0.519943 61.5742 1.21994C62.3302 1.86394 62.3862 1.93394 62.3862 2.11594C62.3862 2.31194 62.3162 2.35394 61.4062 2.56394C60.3562 3.15194 59.5162 3.62794 58.4522 4.21594C58.7882 4.29994 58.8302 4.38394 58.8302 4.49594C58.8302 4.64994 58.7742 4.71994 58.2142 5.01394V6.46994H61.1682C62.2742 5.13994 62.3162 5.11194 62.4562 5.11194C62.6102 5.11194 62.6522 5.13994 63.4642 5.90994C64.0242 6.44194 64.0662 6.51194 64.0662 6.60994C64.0662 6.70794 63.9962 6.76394 63.8842 6.76394H58.2142C58.2142 8.76594 58.2842 10.7399 58.2842 11.2159C58.2842 12.0139 58.0882 12.4479 57.5562 12.7559C57.0942 13.0219 56.6042 13.1059 56.2122 13.1059C55.9602 13.1059 55.8622 13.0079 55.7642 12.7419C55.5402 12.0979 55.1202 11.7619 54.0002 11.4119C53.9162 11.3839 53.9162 11.2579 54.0002 11.2579C54.4902 11.2719 54.5602 11.2719 54.9382 11.2719C56.0722 11.2719 56.5342 11.2439 56.5342 10.5719V6.76394H52.9642C52.4742 6.76394 51.9282 6.79194 51.1302 6.86194L50.9902 6.37194C51.9142 6.44194 52.4742 6.46994 52.9642 6.46994Z" fill="#DC0B28"/>
<path d="M40.994 5.32204H41.68C42.38 4.44004 42.408 4.39804 42.52 4.39804C42.646 4.39804 42.688 4.42604 43.164 4.88804C43.584 5.29404 43.612 5.35004 43.612 5.46204C43.612 5.54604 43.556 5.61604 43.43 5.61604H41.316C41.316 5.74204 41.232 5.82604 40.924 5.96604V7.24004H41.596C42.31 6.37204 42.338 6.33004 42.45 6.33004C42.576 6.33004 42.618 6.34404 43.08 6.80604C43.486 7.21204 43.528 7.28204 43.528 7.39404C43.528 7.47804 43.472 7.53404 43.374 7.53404H40.924V8.17804C42.38 8.24804 43.192 9.06004 43.192 9.77404C43.192 10.432 42.828 10.74 42.366 10.74C41.988 10.74 41.736 10.488 41.68 9.98404C41.596 9.21404 41.4 8.71004 40.924 8.37404C40.924 10.922 40.98 12.308 40.98 12.686C40.98 13.064 40.63 13.302 39.986 13.302C39.552 13.302 39.44 13.204 39.44 12.854C39.44 12.574 39.482 11.258 39.524 9.76004C38.824 10.852 37.914 11.762 36.962 12.322C36.892 12.364 36.808 12.238 36.864 12.182C37.634 11.412 38.684 9.60604 39.076 7.53404H38.656C38.278 7.53404 37.942 7.54804 37.284 7.63204L37.144 7.14204C37.858 7.22604 38.222 7.24004 38.656 7.24004H39.524C39.524 6.69404 39.524 6.16204 39.482 5.61604H38.446C38.068 5.61604 37.732 5.63004 37.074 5.71404L36.934 5.22404C37.648 5.30804 38.012 5.32204 38.446 5.32204H40.49C40.728 4.55204 40.896 3.96404 41.05 3.22204C41.092 3.02604 41.134 2.83004 41.162 2.64804H38.572C38.194 2.64804 37.858 2.66204 37.2 2.74604L37.06 2.25604C37.774 2.34004 38.138 2.35404 38.572 2.35404H39.37V1.24804C39.37 0.856036 39.342 0.604037 39.3 0.212036C41.218 0.380036 41.4 0.478037 41.4 0.688037C41.4 0.800037 41.316 0.912036 40.882 1.12204V2.35404H41.456C42.156 1.45804 42.198 1.43004 42.31 1.43004C42.422 1.43004 42.464 1.44404 42.94 1.92004C43.36 2.34004 43.388 2.38204 43.388 2.49404C43.388 2.59204 43.318 2.64804 43.22 2.64804H41.288C42.758 3.13804 42.884 3.18004 42.884 3.40404C42.884 3.57204 42.73 3.65604 42.394 3.71204C41.876 4.32804 41.484 4.77604 40.994 5.32204ZM47.77 8.16404V11.286C47.77 11.524 47.826 11.608 48.162 11.608C48.666 11.608 48.82 11.58 49.058 11.216C49.352 10.754 49.576 10.292 49.87 9.62004C49.898 9.55004 49.982 9.56404 49.968 9.64804C49.912 10.208 49.87 10.824 49.87 10.964C49.87 11.314 49.926 11.482 50.08 11.678C50.206 11.846 50.262 11.986 50.262 12.154C50.262 12.714 49.898 13.064 48.036 13.064C46.706 13.064 46.37 12.798 46.37 11.734C46.37 11.356 46.398 10.642 46.398 9.95604V8.76604C46.342 8.83604 46.216 8.90604 45.978 8.99004C45.6 11.37 43.794 12.91 41.176 13.246C41.092 13.26 41.05 13.12 41.134 13.092C42.8 12.588 44.256 11.132 44.522 8.90604C44.536 8.76604 44.564 8.59804 44.564 8.38804C44.466 8.40204 44.354 8.41604 44.214 8.41604C43.808 8.41604 43.71 8.30404 43.71 7.95404C43.71 7.67404 43.766 6.12004 43.766 3.81004C43.766 1.58404 43.752 1.20604 43.696 0.436037C44.816 0.744037 45.264 0.898036 45.418 1.05204H47.476C48.106 0.352037 48.148 0.310037 48.288 0.310037C48.442 0.310037 48.498 0.338036 48.96 0.744037C49.534 1.24804 49.562 1.30404 49.562 1.44404C49.562 1.57004 49.548 1.59804 49.17 1.90604V3.76804C49.17 5.63004 49.24 7.49204 49.24 7.81404C49.24 8.29004 48.918 8.40204 48.274 8.40204C48.008 8.40204 47.84 8.34604 47.77 8.16404ZM47.728 3.20804V1.34604H45.418C45.376 1.40204 45.278 1.45804 45.124 1.52804V3.20804H47.728ZM47.728 3.50204H45.124V5.36404H47.728V3.50204ZM47.728 5.65804H45.124V7.54804H47.728V5.65804ZM46.384 7.84204H45.124C45.124 7.94004 45.11 8.02404 45.068 8.10804C46.048 8.34604 46.286 8.43004 46.398 8.52804C46.398 8.30404 46.398 8.23404 46.384 7.84204ZM37.816 2.92804C37.746 2.87204 37.802 2.80204 37.886 2.80204C39.104 2.88604 39.916 3.58604 39.916 4.31404C39.916 4.87404 39.552 5.21004 39.132 5.21004C38.74 5.21004 38.516 4.97204 38.474 4.48204C38.404 3.62804 38.222 3.22204 37.816 2.92804Z" fill="#DC0B28"/>
<path d="M168.389 19.616L164.325 26.896V32.032H162.149V26.896L158.149 19.616H160.549L163.013 24.24C163.173 24.528 163.253 24.704 163.397 24.992C163.541 24.688 163.621 24.528 163.797 24.224L166.181 19.616H168.389Z" fill="#DC0B28"/>
<path d="M157.282 19.616V21.36H153.586V32.032H151.41V21.36H147.746V19.616H157.282Z" fill="#DC0B28"/>
<path d="M137.55 19.616H142.014C145.038 19.616 146.414 20.832 146.414 22.992C146.414 24.528 145.55 25.664 143.95 26.144L146.814 32.032H144.494L141.982 26.464C141.806 26.464 141.63 26.48 141.422 26.48H139.662V32.032H137.55V19.616ZM139.662 21.232V24.88H141.822C143.518 24.88 144.254 24.176 144.254 23.024C144.254 21.92 143.63 21.232 141.918 21.232H139.662Z" fill="#DC0B28"/>
<path d="M131.878 19.616L135.702 32.032H133.446L132.39 28.384H128.582L127.51 32.032H125.462L129.27 19.616H131.878ZM132.006 26.784L131.286 24.272C131.014 23.296 130.822 22.384 130.55 21.216H130.406C130.134 22.4 129.91 23.296 129.638 24.256L128.966 26.784H132.006Z" fill="#DC0B28"/>
<path d="M116.05 19.616H120.434C123.49 19.616 124.866 20.88 124.866 23.168C124.866 25.456 123.282 26.816 120.306 26.816H118.21V32.032H116.05V19.616ZM118.21 21.232V25.2H120.242C121.89 25.2 122.69 24.448 122.69 23.184C122.69 21.952 121.97 21.232 120.322 21.232H118.21Z" fill="#DC0B28"/>
<path d="M109.266 28.08H103.33C103.346 29.744 104.082 30.848 105.538 30.848C106.45 30.848 107.09 30.336 107.394 29.184L109.218 29.712C108.674 31.392 107.474 32.256 105.522 32.256C102.898 32.256 101.362 30.576 101.362 27.696C101.362 24.832 102.978 23.056 105.346 23.056C107.586 23.056 109.266 24.688 109.266 27.664V28.08ZM103.362 26.752H107.298C107.202 25.28 106.578 24.448 105.378 24.448C104.162 24.448 103.458 25.344 103.362 26.752Z" fill="#DC0B28"/>
<path d="M93.951 23.248V24.784C94.655 23.744 95.695 23.056 96.831 23.056C98.287 23.056 99.343 24 99.343 25.696V32.032H97.279V26.256C97.279 25.248 96.847 24.784 96.063 24.784C95.359 24.784 94.559 25.36 94.015 26.272V32.032H91.999V23.248H93.951Z" fill="#DC0B28"/>
<path d="M89.4212 23.248V32.032H87.4052V23.248H89.4212ZM89.5012 19.616V21.68H87.3252V19.616H89.5012Z" fill="#DC0B28"/>
<path d="M83.7428 20.384V23.248H85.7108V24.72H83.7428V29.536C83.7428 30.416 84.0948 30.8 84.8308 30.8C85.1668 30.8 85.4868 30.784 85.8548 30.704L85.7748 32.144C85.2148 32.224 84.7348 32.24 84.2068 32.24C82.5428 32.24 81.7588 31.52 81.7588 29.904V24.72H80.4468V23.248H81.7588V20.832L83.7428 20.384Z" fill="#DC0B28"/>
<path d="M73.4041 23.248V24.784C74.1081 23.744 75.1481 23.056 76.2841 23.056C77.7401 23.056 78.7961 24 78.7961 25.696V32.032H76.7321V26.256C76.7321 25.248 76.3001 24.784 75.5161 24.784C74.8121 24.784 74.0121 25.36 73.4681 26.272V32.032H71.4521V23.248H73.4041Z" fill="#DC0B28"/>
<path d="M69.4221 28.08H63.4861C63.5021 29.744 64.2381 30.848 65.6941 30.848C66.6061 30.848 67.2461 30.336 67.5501 29.184L69.3741 29.712C68.8301 31.392 67.6301 32.256 65.6781 32.256C63.0541 32.256 61.5181 30.576 61.5181 27.696C61.5181 24.832 63.1341 23.056 65.5021 23.056C67.7421 23.056 69.4221 24.688 69.4221 27.664V28.08ZM63.5181 26.752H67.4541C67.3581 25.28 66.7341 24.448 65.5341 24.448C64.3181 24.448 63.6141 25.344 63.5181 26.752Z" fill="#DC0B28"/>
<path d="M59.4525 19.392V32.032H57.4365V19.392H59.4525Z" fill="#DC0B28"/>
<path d="M49.7561 25.968L47.8681 25.456C48.3161 23.872 49.5961 23.04 51.5001 23.04C53.7721 23.04 54.9081 24 54.9081 25.952V29.44C54.9081 30.464 54.9721 31.296 55.0521 32.032H53.1961C53.1321 31.648 53.1001 31.392 53.0521 30.88C52.4281 31.776 51.4041 32.24 50.2841 32.24C48.6681 32.24 47.5801 31.232 47.5801 29.632C47.5801 28.096 48.5401 27.104 50.4441 26.736C51.1961 26.592 52.0601 26.512 52.9561 26.48V25.984C52.9561 24.88 52.4921 24.432 51.4361 24.432C50.6041 24.432 49.9321 24.96 49.7561 25.968ZM52.9561 29.36V27.728C52.1081 27.744 51.4841 27.856 50.9401 27.984C49.9961 28.208 49.5001 28.688 49.5001 29.472C49.5001 30.304 49.9961 30.8 50.9081 30.8C51.6761 30.8 52.4441 30.32 52.9561 29.36Z" fill="#DC0B28"/>
<path d="M47.1082 19.616L43.3162 32.032H40.6282L36.8682 19.616H39.1882L40.8042 25.456C41.2682 27.072 41.5882 28.528 41.9722 30.048H42.1962C42.5482 28.56 42.9002 27.12 43.3482 25.52L44.9802 19.616H47.1082Z" fill="#DC0B28"/>
<path d="M20.0404 18.4649C20.336 18.1748 20.8109 18.1791 21.101 18.4746L27.5355 25.0313C27.8234 25.3248 27.8212 25.796 27.5307 26.0869L21.0961 32.5283C20.8034 32.8214 20.3286 32.822 20.0355 32.5293C19.7426 32.2366 19.7429 31.7618 20.0355 31.4688L25.9438 25.5518L20.0307 19.5254C19.7406 19.2298 19.7449 18.755 20.0404 18.4649Z" fill="#DC0B28"/>
<path d="M13.9745 18.4649C14.2701 18.1748 14.7449 18.1791 15.0351 18.4746L21.4696 25.0313C21.7575 25.3248 21.7553 25.796 21.4647 26.0869L15.0302 32.5283C14.7375 32.8214 14.2627 32.822 13.9696 32.5293C13.6767 32.2366 13.677 31.7618 13.9696 31.4688L19.8778 25.5518L13.9647 19.5254C13.6747 19.2298 13.679 18.755 13.9745 18.4649Z" fill="#DC0B28"/>
</g>
<defs>
<linearGradient id="paint0_linear_146_28339" x1="-24.5" y1="9" x2="350.5" y2="9" gradientUnits="userSpaceOnUse">
<stop stop-color="#FF627D"/>
<stop offset="1" stop-color="#FB7596"/>
</linearGradient>
</defs>
</svg>
