<svg width="335" height="35" viewBox="0 0 335 35" fill="none" xmlns="http://www.w3.org/2000/svg">
<mask id="mask0_146_28341" style="mask-type:alpha" maskUnits="userSpaceOnUse" x="0" y="0" width="335" height="35">
<path d="M0 0H335V35H0V0Z" fill="#D9D9D9"/>
</mask>
<g mask="url(#mask0_146_28341)">
<path d="M-24.5 -241H350.5V57H-24.5V-241Z" fill="url(#paint0_linear_146_28341)" fill-opacity="0.79"/>
<path d="M-14.5 -219C-14.5 -221.761 -12.2614 -224 -9.5 -224H335.5C338.261 -224 340.5 -221.761 340.5 -219V42C340.5 44.7614 338.261 47 335.5 47H-9.5C-12.2614 47 -14.5 44.7614 -14.5 42L-14.5 -219Z" fill="#FFFEFE"/>
<path d="M143.229 18.044L143.285 18.086C144.237 17.554 144.993 17.33 145.889 17.33C147.877 17.33 149.277 18.534 149.277 20.116C149.277 22.286 147.331 23.616 144.825 23.616C143.341 23.616 142.319 22.888 142.319 21.964C142.319 21.166 142.977 20.634 143.999 20.634C144.965 20.634 145.763 21.18 146.295 22.202C147.121 21.754 147.681 20.998 147.681 19.738C147.681 18.66 146.897 17.932 145.539 17.932C143.999 17.932 142.613 19.178 141.605 20.746C141.381 21.096 141.157 21.236 140.933 21.236C140.569 21.236 140.233 20.97 140.233 20.368C140.233 19.906 140.443 19.486 140.751 19.206C140.891 19.08 141.101 18.898 141.199 18.8C141.871 18.128 142.487 17.372 143.271 16.406C143.957 15.566 144.769 14.46 145.119 13.942C145.161 13.872 145.175 13.816 145.175 13.774C145.175 13.732 145.147 13.69 145.091 13.69C145.035 13.69 144.909 13.746 144.727 13.83C143.859 14.236 143.159 14.586 142.781 14.824C142.683 14.88 142.529 14.95 142.417 14.95C142.249 14.95 141.997 14.838 141.703 14.46C141.437 14.11 141.269 13.886 141.269 13.606C141.269 13.382 141.297 13.228 141.353 13.004C141.367 12.948 141.395 12.934 141.437 12.934C141.465 12.934 141.493 12.948 141.535 13.004C141.801 13.284 142.039 13.522 142.431 13.522C142.865 13.522 143.565 13.368 145.077 12.78C145.315 12.682 145.511 12.556 145.609 12.458C145.735 12.332 145.889 12.262 146.001 12.262C146.155 12.262 146.407 12.36 146.701 12.598C147.149 12.948 147.261 13.116 147.261 13.34C147.261 13.508 147.121 13.662 146.981 13.774C146.715 13.998 146.267 14.446 145.763 15.02C144.825 16.112 144.013 17.134 143.229 18.044ZM145.133 22.594C144.755 21.712 144.167 21.25 143.551 21.25C143.145 21.25 142.823 21.502 142.823 21.866C142.823 22.342 143.383 22.692 144.265 22.692C144.531 22.692 144.825 22.678 145.133 22.594Z" fill="#DC0B28"/>
<path d="M136.929 19.332H131.959C132.351 20.102 133.275 21.012 134.451 21.586C135.487 22.09 136.397 22.384 137.335 22.538C137.419 22.552 137.405 22.636 137.335 22.678C136.789 22.972 136.397 23.434 136.145 23.924C136.047 24.106 135.977 24.204 135.837 24.204C135.725 24.204 135.627 24.19 135.389 24.106C134.437 23.77 133.653 23.196 133.079 22.496C132.295 21.544 131.861 20.55 131.721 19.346C131.483 20.732 130.937 21.726 130.013 22.482C128.795 23.504 127.297 24.008 125.155 24.176C125.071 24.176 125.029 24.036 125.113 24.022C126.527 23.77 128.053 23.014 129.033 21.796C129.537 21.166 129.929 20.382 130.125 19.332H127.227C127.115 19.92 126.961 20.424 126.737 20.956C126.247 22.104 125.211 23.35 124.175 24.008C124.105 24.05 124.021 23.98 124.077 23.924C124.637 23.308 125.127 22.244 125.421 20.984C125.715 19.696 125.869 18.296 125.869 15.748C125.869 14.656 125.869 13.872 125.785 13.13C127.199 13.494 127.661 13.62 127.801 13.774H133.905C134.577 13.088 134.605 13.06 134.759 13.06C134.913 13.06 134.983 13.088 135.599 13.55C136.117 13.942 136.159 14.012 136.159 14.138C136.159 14.25 136.145 14.278 135.739 14.614V14.894C135.739 15.594 135.767 16.084 135.767 16.336C135.767 16.742 135.375 16.896 134.731 16.896C134.297 16.896 134.129 16.798 134.129 16.434V16.21H127.451C127.437 17.162 127.409 18.1 127.283 19.038H130.181C130.251 18.618 130.279 18.156 130.279 17.638C130.279 17.274 130.265 17.022 130.223 16.644C132.127 16.896 132.309 16.98 132.309 17.204C132.309 17.358 132.239 17.442 131.847 17.638C131.847 18.142 131.819 18.604 131.763 19.038H134.633C135.557 17.932 135.571 17.918 135.711 17.918C135.851 17.918 135.893 17.918 136.621 18.59C137.111 19.052 137.125 19.08 137.125 19.178C137.125 19.276 137.069 19.332 136.929 19.332ZM127.451 15.916H134.129V14.068H127.773C127.717 14.124 127.605 14.18 127.451 14.25V15.916ZM124.651 12.556L124.525 12.066C125.309 12.164 125.995 12.164 126.569 12.164H134.521C135.473 11.114 135.515 11.1 135.641 11.1C135.809 11.1 135.851 11.128 136.495 11.702C136.971 12.122 137.013 12.164 137.013 12.304C137.013 12.402 136.943 12.458 136.845 12.458H126.569C126.065 12.458 125.421 12.486 124.651 12.556Z" fill="#DC0B28"/>
<path d="M121.124 18.45C121.404 18.604 121.712 18.73 122.02 18.856C122.272 18.954 122.51 19.094 122.706 19.276C123 19.542 123.154 19.822 123.154 20.214C123.154 20.662 122.776 20.9 122.244 20.9C121.754 20.9 120.97 20.592 119.976 19.794C118.814 18.87 117.932 18.114 116.672 16.854C116.35 16.532 116.07 16.252 115.916 16.126C115.79 16.028 115.65 15.958 115.496 15.958C115.328 15.958 115.23 16.014 115.09 16.14C114.572 16.616 113.942 17.372 113.396 18.156C113.158 18.506 113.004 18.744 112.85 18.982C112.696 19.22 112.514 19.346 112.248 19.346C111.982 19.346 111.604 19.164 111.03 18.66C110.596 18.282 110.442 17.96 110.428 17.4C110.428 17.344 110.456 17.316 110.498 17.316C110.54 17.316 110.582 17.344 110.624 17.372C110.862 17.554 111.058 17.666 111.268 17.666C111.478 17.666 111.618 17.652 111.968 17.428C112.626 16.994 113.41 16.336 114.32 15.538C114.796 15.104 115.076 14.95 115.482 14.95C115.958 14.95 116.322 15.146 116.98 15.678C118.324 16.784 119.57 17.596 121.124 18.45Z" fill="#DC0B28"/>
<path d="M103.685 17.9599V21.2779C103.685 22.2579 103.755 22.4819 105.099 22.5519C105.225 22.5519 105.239 22.5659 105.239 22.6919C105.239 22.8039 105.225 22.8179 105.099 22.8179C104.427 22.7899 103.573 22.7759 102.803 22.7759C102.061 22.7759 101.207 22.7899 100.605 22.8179C100.479 22.8179 100.465 22.8039 100.465 22.6919C100.465 22.5799 100.479 22.5659 100.605 22.5519C101.739 22.4819 101.907 22.2579 101.907 21.2779V13.8999C101.907 12.9199 101.753 12.7099 100.507 12.6259C100.381 12.6119 100.367 12.5979 100.367 12.4859C100.367 12.3739 100.381 12.3599 100.507 12.3599C101.165 12.3879 102.047 12.4019 102.803 12.4019C103.587 12.4019 104.245 12.3459 104.987 12.3459C107.997 12.3459 109.075 13.4099 109.075 15.0759C109.075 16.8959 107.717 18.0159 104.609 18.0159C104.245 18.0159 103.993 18.0019 103.685 17.9599ZM103.685 13.8719V17.5959C103.951 17.6519 104.175 17.6659 104.483 17.6659C106.121 17.6659 107.003 16.7419 107.003 15.1459C107.003 13.4519 106.191 12.7099 104.693 12.7099C103.867 12.7099 103.685 12.8779 103.685 13.8719Z" fill="#DC0B28"/>
<path d="M94.4925 12.1219C97.2225 12.1219 99.5185 14.2499 99.5185 17.5259C99.5185 20.8019 97.2085 23.0699 94.4645 23.0699C91.7205 23.0699 89.4385 20.9279 89.4385 17.6519C89.4385 14.3759 91.7625 12.1219 94.4925 12.1219ZM94.4785 12.4579C92.7565 12.4579 91.6225 14.1659 91.6225 17.5959C91.6225 21.0259 92.7425 22.7339 94.4785 22.7339C96.2145 22.7339 97.3345 21.0259 97.3345 17.5959C97.3345 14.1659 96.2005 12.4579 94.4785 12.4579Z" fill="#DC0B28"/>
<path d="M82.8819 21.292V13.886C82.8819 12.934 82.7839 12.78 82.1119 12.78C81.4819 12.78 80.9639 12.99 80.4739 13.452C79.9839 13.914 79.6059 14.488 79.3259 15.286C79.2979 15.356 79.2699 15.398 79.1999 15.398C79.0739 15.398 79.0039 15.356 79.0039 15.244C79.1299 14.446 79.2979 13.088 79.3679 12.36C80.9079 12.388 82.3359 12.402 83.7639 12.402C85.2059 12.402 86.6899 12.388 88.2439 12.36C88.3279 13.088 88.4959 14.446 88.5939 15.244C88.5939 15.356 88.5239 15.398 88.3979 15.398C88.3279 15.398 88.2999 15.356 88.2719 15.286C88.0199 14.516 87.6139 13.928 87.1239 13.452C86.6339 12.99 86.0739 12.78 85.4439 12.78C84.7859 12.78 84.6739 12.934 84.6739 13.886V21.292C84.6739 22.258 84.7999 22.482 86.1019 22.552C86.2279 22.566 86.2419 22.58 86.2419 22.692C86.2419 22.804 86.2279 22.818 86.1019 22.818C85.5139 22.79 84.4919 22.776 83.7639 22.776C83.0219 22.776 82.1119 22.79 81.5799 22.818C81.4539 22.818 81.4399 22.804 81.4399 22.692C81.4399 22.58 81.4539 22.566 81.5799 22.552C82.6719 22.482 82.8819 22.258 82.8819 21.292Z" fill="#DC0B28"/>
<path d="M73.936 12.836C73.894 12.808 73.88 12.766 73.88 12.738C73.88 12.696 73.936 12.668 73.964 12.668C74.454 12.668 75.126 12.878 75.504 13.116C75.98 13.41 76.26 13.718 76.26 14.082C76.26 14.418 76.05 14.656 75.756 14.656C75.504 14.656 75.35 14.516 75.168 14.124C74.986 13.816 74.524 13.228 73.936 12.836ZM75.154 11.884C75.098 11.856 75.084 11.828 75.084 11.8C75.084 11.758 75.098 11.73 75.182 11.716C75.308 11.702 75.378 11.702 75.518 11.702C75.854 11.702 76.4 11.828 76.708 11.954C77.114 12.136 77.59 12.43 77.59 12.92C77.59 13.27 77.38 13.438 77.1 13.438C76.862 13.438 76.722 13.312 76.596 13.074C76.288 12.612 75.714 12.164 75.154 11.884ZM67.58 13.704C67.58 13.648 67.65 13.606 67.748 13.592C67.888 13.564 68.224 13.522 68.448 13.522C70.1 13.522 70.982 14.194 70.982 14.964C70.982 15.482 70.646 15.804 70.212 15.804C69.862 15.804 69.638 15.636 69.414 15.314C68.91 14.586 68.42 14.082 67.72 13.83C67.622 13.802 67.58 13.76 67.58 13.704ZM67.202 16.462C68.658 16.462 69.666 17.092 69.666 17.848C69.666 18.352 69.316 18.688 68.882 18.688C68.462 18.688 68.238 18.52 67.916 18.016C67.538 17.428 67.062 17.05 66.432 16.77C66.376 16.742 66.292 16.686 66.292 16.63C66.292 16.574 66.334 16.546 66.39 16.532C66.572 16.49 66.81 16.462 67.202 16.462ZM67.342 20.55C67.384 20.55 67.454 20.606 67.496 20.648C67.93 21.026 68.182 21.082 68.406 21.082C68.644 21.082 68.882 21.04 69.274 20.83C71.696 19.556 74.664 17.372 76.974 15.006C77.002 14.978 77.058 14.95 77.1 14.95C77.156 14.95 77.198 14.992 77.198 15.02C77.198 15.062 77.17 15.146 77.128 15.216C75.532 18.072 73.04 20.396 69.554 22.496C69.162 22.804 68.91 22.916 68.756 22.916C68.49 22.916 68.238 22.762 67.776 22.286C67.426 21.922 67.118 21.53 67.118 21.278C67.118 21.138 67.174 20.858 67.258 20.648C67.286 20.578 67.3 20.55 67.342 20.55Z" fill="#DC0B28"/>
<path d="M61.21 16.882C61.378 16.882 61.854 16.952 62.092 17.05C62.624 17.274 62.792 17.47 62.792 17.834C62.792 18.24 62.428 18.352 61.966 18.352C61.616 18.352 60.706 18.338 60.16 18.338C58.928 18.338 56.716 18.45 54.672 18.674C54.322 18.702 54.168 18.744 53.972 18.856C53.818 18.94 53.706 18.968 53.566 18.968C53.426 18.968 53.132 18.828 52.754 18.464C52.222 17.96 52.082 17.666 52.082 17.47C52.082 17.344 52.11 17.134 52.166 16.91C52.18 16.84 52.222 16.812 52.25 16.812C52.278 16.812 52.334 16.84 52.376 16.882C52.81 17.246 53.062 17.4 53.468 17.4C53.72 17.4 54 17.386 54.294 17.372C56.716 17.246 58.116 17.148 59.824 17.022C60.174 16.994 60.314 16.98 60.678 16.938C60.79 16.924 61.084 16.882 61.21 16.882Z" fill="#DC0B28"/>
<path d="M46.8318 13.0601C47.5598 13.0601 48.1898 13.6621 48.1898 14.4181C48.1898 15.1461 47.5598 15.7761 46.8318 15.7761C46.0758 15.7761 45.4738 15.1461 45.4738 14.4181C45.4738 13.6621 46.0758 13.0601 46.8318 13.0601ZM46.8318 13.5081C46.3418 13.5081 45.9078 13.9281 45.9078 14.4181C45.9078 14.8801 46.3418 15.3141 46.8318 15.3141C47.2938 15.3141 47.7278 14.8801 47.7278 14.4181C47.7278 13.9281 47.2938 13.5081 46.8318 13.5081ZM48.2738 18.5621C49.2538 19.0661 49.5898 19.6401 49.5898 20.1581C49.5898 20.6481 49.2678 20.8581 48.8198 20.8581C48.3158 20.8581 47.6298 20.4801 46.3698 19.5281C45.2358 18.6741 44.1718 17.8061 43.0238 16.7561C42.7018 16.4621 42.4778 16.3501 42.3518 16.3501C42.2118 16.3501 42.0998 16.4201 41.8898 16.6301C41.6518 16.8541 40.9098 17.8061 39.9438 18.9681C39.7058 19.3461 39.5938 19.4161 39.3278 19.4161C39.0338 19.4161 38.6558 19.2061 38.1378 18.7721C37.7318 18.4361 37.5078 18.1701 37.5078 17.9741C37.5078 17.8481 37.5218 17.7221 37.5498 17.6381C37.5638 17.5821 37.5918 17.5261 37.6338 17.5261C37.6618 17.5261 37.6898 17.5401 37.7598 17.5961C37.9558 17.7501 38.2358 17.8341 38.4598 17.8341C38.6418 17.8341 38.8098 17.7781 38.9918 17.6381C39.8458 16.9941 40.7138 16.2101 41.4838 15.5241C41.7918 15.2441 42.0998 15.1181 42.3098 15.1181C42.5058 15.1181 42.7718 15.2161 43.1078 15.4821C44.8998 16.7561 46.6358 17.7921 47.4618 18.2121C47.8538 18.4081 48.0778 18.4921 48.2738 18.5621Z" fill="#DC0B28"/>
</g>
<defs>
<linearGradient id="paint0_linear_146_28341" x1="-24.5" y1="-92" x2="350.5" y2="-92" gradientUnits="userSpaceOnUse">
<stop stop-color="#FF627D"/>
<stop offset="1" stop-color="#FB7596"/>
</linearGradient>
</defs>
</svg>
