<svg width="335" height="35" viewBox="0 0 335 35" fill="none" xmlns="http://www.w3.org/2000/svg">
<mask id="mask0_146_28340" style="mask-type:alpha" maskUnits="userSpaceOnUse" x="0" y="0" width="335" height="35">
<path d="M0 0H335V35H0V0Z" fill="#D9D9D9"/>
</mask>
<g mask="url(#mask0_146_28340)">
<path d="M-24.5 -195H350.5V103H-24.5V-195Z" fill="url(#paint0_linear_146_28340)" fill-opacity="0.79"/>
<path d="M-14.5 -173C-14.5 -175.761 -12.2614 -178 -9.5 -178H335.5C338.261 -178 340.5 -175.761 340.5 -173V88C340.5 90.7614 338.261 93 335.5 93H-9.5C-12.2614 93 -14.5 90.7614 -14.5 88L-14.5 -173Z" fill="#FFFEFE"/>
<path d="M220.642 2.12195C221.286 2.12195 221.748 2.56995 221.748 3.22795C221.748 3.81595 221.51 4.72595 221.272 5.67795C221.006 6.75595 220.852 8.18395 220.852 8.86995C220.852 9.16395 220.866 9.47195 220.894 9.70995C220.894 9.80795 220.74 9.93395 220.53 9.93395C220.474 9.93395 220.418 9.86395 220.418 9.79395C220.446 9.55595 220.46 9.27595 220.46 8.95395C220.46 8.22595 220.306 6.76995 220.054 5.80395C219.788 4.78195 219.522 3.82995 219.522 3.22795C219.522 2.58395 219.984 2.12195 220.642 2.12195ZM220.614 10.8719C221.216 10.8719 221.692 11.3479 221.692 11.9359C221.692 12.5379 221.216 13.0139 220.614 13.0139C220.026 13.0139 219.55 12.5379 219.55 11.9359C219.55 11.3479 220.026 10.8719 220.614 10.8719Z" fill="#DC0B28"/>
<path d="M208.588 7.106C208.574 6.812 208.56 6.518 208.532 6.21C208.49 5.734 208.406 5.468 208.336 5.356C208.21 5.16 207.846 4.964 207.594 4.894C207.468 4.852 207.426 4.838 207.426 4.782C207.426 4.74 207.454 4.726 207.496 4.698C207.874 4.474 208.196 4.432 208.42 4.432C208.63 4.432 208.896 4.516 209.246 4.726C209.694 5.006 209.988 5.272 209.988 5.566C209.988 5.804 209.904 6.014 209.89 6.168C209.876 6.308 209.862 6.574 209.862 6.798C210.772 6.56 212.004 6.238 213.012 5.986C213.068 5.356 213.068 4.992 213.068 4.516C213.068 4.11 213.026 3.704 212.984 3.396C212.928 2.976 212.648 2.752 212.242 2.626C212.158 2.598 212.116 2.57 212.116 2.528C212.116 2.486 212.13 2.444 212.186 2.402C212.452 2.192 212.83 2.052 213.026 2.052C213.166 2.052 213.502 2.15 213.894 2.43C214.51 2.822 214.734 3.088 214.734 3.312C214.734 3.396 214.706 3.522 214.594 3.662C214.482 3.802 214.454 3.956 214.426 4.264C214.398 4.67 214.37 5.076 214.314 5.664C214.664 5.594 214.986 5.524 215.224 5.468C215.378 5.426 215.504 5.384 215.63 5.314C215.742 5.258 215.882 5.188 216.05 5.188C216.316 5.188 216.694 5.272 217.17 5.482C217.618 5.678 217.8 5.902 217.8 6.21C217.8 6.546 217.506 6.686 217.17 6.686C217.03 6.686 216.876 6.672 216.652 6.658C216.26 6.63 215.952 6.602 215.686 6.602C215.21 6.602 214.86 6.63 214.244 6.714C214.104 8.24 213.936 8.982 213.726 9.5C213.516 9.976 213.082 10.326 212.606 10.326C212.354 10.326 212.186 10.13 212.074 9.864C211.92 9.416 211.738 9.206 211.178 8.786C211.122 8.744 211.108 8.716 211.108 8.688C211.108 8.66 211.122 8.632 211.164 8.632C211.192 8.632 211.234 8.646 211.318 8.674C211.64 8.758 212.018 8.842 212.242 8.842C212.536 8.842 212.704 8.688 212.774 8.324C212.872 7.862 212.914 7.414 212.942 6.938C211.752 7.19 210.968 7.414 209.848 7.75C209.834 8.408 209.806 8.884 209.806 9.5C209.806 10.354 209.876 10.9 210.114 11.166C210.38 11.446 210.744 11.572 211.556 11.572C212.102 11.572 212.676 11.53 213.39 11.39C213.656 11.334 213.88 11.264 214.076 11.18C215 11.236 215.588 11.586 215.588 12.048C215.588 12.44 215.364 12.594 214.832 12.692C214.188 12.79 213.46 12.846 212.578 12.846C211.514 12.846 210.73 12.734 210.072 12.356C209.372 11.964 208.98 11.334 208.812 10.662C208.686 10.214 208.644 9.472 208.602 8.114C208.07 8.31 207.482 8.576 207.076 8.828C206.908 8.926 206.782 8.982 206.642 8.982C206.39 8.982 205.984 8.758 205.606 8.45C205.186 8.128 205.032 7.75 205.032 7.54C205.032 7.484 205.032 7.4 205.046 7.316C205.06 7.274 205.074 7.246 205.102 7.246C205.13 7.246 205.13 7.246 205.158 7.274C205.396 7.484 205.816 7.666 206.082 7.666C206.348 7.666 206.628 7.624 207.3 7.456C207.664 7.372 208.126 7.232 208.588 7.106Z" fill="#DC0B28"/>
<path d="M203.674 8.77206H198.606C198.578 8.88406 198.466 8.96806 198.228 9.12206V10.7881H200.748C201.588 9.80806 201.63 9.76606 201.784 9.76606C201.952 9.76606 201.994 9.79406 202.554 10.2841C203.086 10.7601 203.114 10.8021 203.114 10.9281C203.114 11.0261 203.072 11.0821 202.96 11.0821H198.228C198.242 12.3561 198.27 13.2661 198.27 13.6861C198.27 14.0921 197.99 14.2741 197.206 14.2741C196.688 14.2741 196.52 14.1621 196.52 13.7421C196.52 13.3921 196.548 12.2021 196.562 11.0821H194.518C193.804 11.0821 193.188 11.0961 192.376 11.1801L192.25 10.6901C193.132 10.7741 193.776 10.7881 194.518 10.7881H196.562V10.6201C196.562 9.76606 196.548 9.20606 196.52 8.77206H193.552C192.838 8.77206 192.222 8.78606 191.41 8.87006L191.284 8.38006C192.166 8.46406 192.81 8.47806 193.552 8.47806H197.864C198.2 7.65206 198.424 7.05006 198.62 6.42006C198.704 6.14006 198.746 5.95806 198.788 5.77606H193.272C192.558 5.77606 191.942 5.79006 191.13 5.87406L191.004 5.38406C191.886 5.46806 192.53 5.48206 193.272 5.48206H196.506V3.62006H194.518C193.804 3.62006 193.188 3.63406 192.376 3.71806L192.25 3.22806C193.132 3.31206 193.776 3.32606 194.518 3.32606H196.506V2.38806C196.506 2.02406 196.506 1.73006 196.422 1.08606C198.494 1.22606 198.76 1.35206 198.76 1.56206C198.76 1.73006 198.69 1.82806 198.186 2.05206V3.32606H200.37C201.21 2.34606 201.252 2.31806 201.392 2.31806C201.532 2.31806 201.588 2.34606 202.134 2.82206C202.666 3.29806 202.694 3.34006 202.694 3.46606C202.694 3.56406 202.652 3.62006 202.54 3.62006H198.186V5.48206H201.56C202.414 4.46006 202.456 4.43206 202.61 4.43206C202.764 4.43206 202.806 4.43206 203.408 4.97806C203.94 5.45406 203.968 5.49606 203.968 5.62206C203.968 5.72006 203.926 5.77606 203.814 5.77606H199.264C200.762 6.29406 200.846 6.40606 200.846 6.56006C200.846 6.72806 200.762 6.81206 200.258 6.89606C199.656 7.49806 199.152 8.00206 198.662 8.47806H201.42C202.288 7.45606 202.33 7.41406 202.47 7.41406C202.624 7.41406 202.666 7.44206 203.268 7.97406C203.8 8.45006 203.828 8.49206 203.828 8.61806C203.828 8.71606 203.786 8.77206 203.674 8.77206ZM194.252 5.98606C194.182 5.93006 194.238 5.84606 194.322 5.84606C195.876 5.95806 196.66 6.61606 196.66 7.45606C196.66 8.07206 196.198 8.40806 195.722 8.40806C195.33 8.40806 195.022 8.19806 194.966 7.65206C194.882 6.84006 194.63 6.28006 194.252 5.98606Z" fill="#DC0B28"/>
<path d="M182.8 7.59597V7.63797C182.436 8.99597 182.156 10.382 182.156 10.788C182.156 11.054 182.184 11.194 182.24 11.32C182.31 11.46 182.338 11.614 182.338 11.81C182.338 12.132 182.114 12.356 181.526 12.356C180.644 12.356 179.594 11.488 179.118 10.214C178.81 9.41597 178.572 8.42197 178.334 6.46197C178.194 5.20197 178.096 4.68397 177.872 4.30597C177.858 4.27797 177.858 4.27797 177.858 4.24997C177.858 4.22197 177.872 4.19397 177.9 4.19397C177.928 4.19397 177.942 4.19397 177.984 4.22197C179.006 4.97797 179.258 5.42597 179.384 6.20997C179.664 7.87597 180.07 9.14997 180.336 9.58397C180.546 9.91997 180.686 10.004 180.784 10.004C180.896 10.004 181.022 9.93397 181.302 9.59797C181.61 9.21997 182.198 8.33797 182.632 7.59597C182.66 7.53997 182.688 7.52597 182.73 7.52597C182.772 7.52597 182.8 7.55397 182.8 7.59597ZM185.502 5.13197H185.544C186.524 5.25797 187.364 5.69197 188.064 6.29397C188.806 6.96597 189.282 7.73597 189.282 8.64597C189.282 9.31797 188.918 9.69597 188.47 9.69597C188.274 9.69597 188.106 9.65397 187.91 9.49997C187.49 9.14997 187.14 9.03797 186.216 9.02397C186.174 9.02397 186.146 9.00997 186.146 8.96797C186.146 8.93997 186.16 8.91197 186.202 8.89797C186.566 8.74397 187.084 8.49197 187.308 8.32397C187.462 8.19797 187.546 8.11397 187.546 7.88997C187.546 7.51197 187.21 6.93797 186.748 6.36397C186.412 5.98597 185.992 5.59397 185.558 5.32797C185.488 5.28597 185.432 5.24397 185.432 5.20197C185.432 5.15997 185.46 5.13197 185.502 5.13197Z" fill="#DC0B28"/>
<path d="M175.03 10.508C175.072 10.508 175.1 10.536 175.1 10.564C175.1 10.592 175.072 10.634 175.016 10.704C173.756 12.286 171.306 13.602 169.164 13.602C167.148 13.602 166.392 12.776 166.392 10.298C166.392 9.55605 166.476 7.14805 166.56 3.92805C166.574 3.57805 166.574 3.28405 166.574 3.15805C166.574 2.92005 166.49 2.80805 166.336 2.68205C166.112 2.52805 165.902 2.44405 165.692 2.38805C165.594 2.36005 165.552 2.33205 165.552 2.29005C165.552 2.24805 165.594 2.20605 165.664 2.16405C166.112 1.88405 166.504 1.80005 166.728 1.80005C166.98 1.80005 167.33 1.92605 167.736 2.17805C168.24 2.51405 168.464 2.73805 168.464 2.99005C168.464 3.15805 168.352 3.35405 168.24 3.53605C168.156 3.67605 168.1 3.92805 168.072 4.19405C167.89 5.88805 167.708 9.01005 167.708 10.382C167.708 11.852 168.016 12.328 169.276 12.328C171.222 12.328 173.014 11.74 174.834 10.606C174.96 10.536 174.988 10.508 175.03 10.508Z" fill="#DC0B28"/>
<path d="M157.866 6.85401H159.686C160.54 5.70601 160.582 5.67801 160.708 5.67801C160.834 5.67801 160.876 5.69201 161.534 6.37801C161.954 6.81201 161.982 6.86801 161.982 6.98001C161.982 7.06401 161.926 7.14801 161.828 7.14801H157.992C158.258 8.08601 158.944 9.27601 159.728 10.116C160.456 10.914 161.562 11.796 162.29 12.146C162.36 12.188 162.346 12.272 162.262 12.3C161.716 12.482 161.212 12.846 160.876 13.336C160.778 13.49 160.68 13.574 160.568 13.574C160.456 13.574 160.372 13.518 160.274 13.434C159.714 12.944 159.21 12.188 158.902 11.558C158.37 10.466 157.936 9.05201 157.852 7.14801H157.796L157.866 10.382C157.908 12.356 157.936 13.294 157.936 13.658C157.936 14.078 157.67 14.26 156.914 14.26C156.368 14.26 156.27 14.148 156.27 13.742C156.27 13.364 156.298 12.356 156.326 10.984L156.368 9.50001C155.01 11.642 152.938 13.126 150.782 13.756C150.698 13.784 150.642 13.63 150.712 13.602C152.84 12.636 154.912 9.94801 155.864 7.14801H155.08C154.702 7.14801 154.366 7.16201 153.708 7.24601L153.568 6.75601C154.282 6.84001 154.646 6.85401 155.08 6.85401H156.354V4.33401H155.22C154.842 4.33401 154.506 4.34801 153.848 4.43201L153.708 3.94201C154.422 4.02601 154.786 4.04001 155.22 4.04001H156.354C156.354 2.15001 156.312 1.71601 156.242 1.11401C158.188 1.25401 158.426 1.35201 158.426 1.57601C158.426 1.74401 158.3 1.84201 157.866 2.03801V4.04001H159.056C159.924 2.92001 159.938 2.90601 160.05 2.90601C160.162 2.90601 160.204 2.93401 160.848 3.62001C161.226 4.02601 161.254 4.05401 161.254 4.16601C161.254 4.25001 161.198 4.33401 161.1 4.33401H157.866V6.85401ZM151.958 9.05201H150.698V10.256C150.698 10.676 150.446 10.844 149.76 10.844C149.438 10.844 149.312 10.774 149.312 10.326C149.312 9.93401 149.354 7.72201 149.354 5.70601C149.354 4.13801 149.354 3.35401 149.298 2.54201C150.446 2.87801 150.852 3.04601 150.978 3.18601H151.818C152.35 2.50001 152.392 2.48601 152.504 2.48601C152.63 2.48601 152.672 2.50001 153.204 2.93401C153.708 3.35401 153.736 3.42401 153.736 3.55001C153.736 3.69001 153.708 3.73201 153.358 4.04001V5.53801C153.358 7.83401 153.414 8.85601 153.414 9.22001C153.414 9.65401 153.204 9.90601 152.434 9.90601C152.07 9.90601 151.958 9.76601 151.958 9.36001V9.05201ZM151.958 8.75801V3.48001H151.006C150.95 3.53601 150.866 3.59201 150.698 3.67601V8.75801H151.958Z" fill="#DC0B28"/>
<path d="M140.352 3.73198H137.314C136.922 3.73198 136.446 3.75998 135.788 3.82998L135.648 3.33998C136.376 3.40998 136.88 3.43798 137.314 3.43798H139.442C139.26 3.32598 139.134 3.11598 139.106 2.82198C139.022 1.99598 138.742 1.57598 138.336 1.32398C138.266 1.28198 138.322 1.18398 138.406 1.18398C139.778 1.18398 140.772 1.75798 140.772 2.62598C140.772 3.00398 140.604 3.29798 140.296 3.43798H141.794C142.018 2.93398 142.228 2.37398 142.424 1.78598C142.536 1.46398 142.578 1.29598 142.62 1.05798C144.454 1.65998 144.608 1.77198 144.608 1.95398C144.608 2.13598 144.496 2.20598 143.978 2.31798C143.488 2.70998 143.04 3.07398 142.592 3.43798H145.028C145.868 2.47198 145.91 2.45798 146.022 2.45798C146.162 2.45798 146.204 2.47198 146.792 3.03198C147.226 3.45198 147.268 3.49398 147.268 3.59198C147.268 3.67598 147.226 3.73198 147.128 3.73198H142.27C142.27 3.82998 142.186 3.89998 141.976 4.02598V5.38398H143.754C144.608 4.41798 144.636 4.40398 144.762 4.40398C144.902 4.40398 144.93 4.41798 145.532 4.99198C145.98 5.41198 146.008 5.45398 146.008 5.53798C146.008 5.62198 145.966 5.67798 145.868 5.67798H141.976V7.34398H145.266C146.092 6.33598 146.134 6.32198 146.26 6.32198C146.4 6.32198 146.442 6.33598 147.128 6.95198C147.576 7.34398 147.618 7.39998 147.618 7.49798C147.618 7.58198 147.576 7.63798 147.478 7.63798H140.52C142.144 7.87598 142.298 7.98798 142.298 8.18398C142.298 8.30998 142.242 8.42198 141.85 8.58998C141.836 8.92598 141.794 9.24798 141.738 9.55598H145.322C146.204 8.47798 146.232 8.44998 146.372 8.44998C146.498 8.44998 146.54 8.46398 147.282 9.13598C147.758 9.56998 147.786 9.61198 147.786 9.70998C147.786 9.79398 147.744 9.84998 147.646 9.84998H142.032C142.508 10.592 143.236 11.11 144.356 11.586C145.49 12.062 146.96 12.3 148.164 12.328C148.248 12.328 148.234 12.44 148.164 12.468C147.548 12.748 147.128 13.322 146.932 13.77C146.806 14.064 146.736 14.148 146.54 14.148C146.442 14.148 146.316 14.134 146.162 14.106C145.336 13.966 144.426 13.574 143.698 12.986C142.844 12.3 142.018 11.026 141.85 9.84998H141.682C141.402 11.124 140.828 12.048 139.988 12.762C138.896 13.686 137.09 14.288 134.962 14.316C134.878 14.316 134.864 14.176 134.948 14.162C136.572 13.938 138 13.21 138.896 12.23C139.512 11.544 139.89 10.732 140.086 9.84998H137.286C136.796 9.84998 136.25 9.87798 135.452 9.94798L135.312 9.45798C136.236 9.52798 136.796 9.55598 137.286 9.55598H140.156C140.226 9.09398 140.268 8.63198 140.268 8.16998C140.268 7.95998 140.254 7.79198 140.226 7.63798H137.286C136.796 7.63798 136.25 7.66598 135.452 7.73598L135.312 7.24598C136.236 7.31598 136.796 7.34398 137.286 7.34398H140.38V5.67798H138.308C137.916 5.67798 137.44 5.70598 136.782 5.77598L136.642 5.28598C137.37 5.35598 137.874 5.38398 138.308 5.38398H140.38V4.50198C140.38 4.26398 140.366 3.98398 140.352 3.73198Z" fill="#DC0B28"/>
<path d="M124.742 13.266C124.742 13.882 124.364 14.288 123.93 14.288C123.412 14.288 123.216 14.05 123.006 13.532C122.628 12.58 121.872 11.656 120.976 11.18C120.934 11.152 120.92 11.124 120.92 11.082C120.92 11.012 120.962 10.984 121.074 10.984C123.076 11.04 124.742 12.048 124.742 13.266Z" fill="#DC0B28"/>
<path d="M110.742 6.18202C109.972 6.37802 109.608 6.43402 109.384 6.43402C109.146 6.43402 108.866 6.35002 108.656 6.21002C108.264 5.94402 107.928 5.45402 107.746 5.10402C107.732 5.07602 107.718 5.03402 107.718 5.00602C107.718 4.96402 107.76 4.92202 107.816 4.92202C107.844 4.92202 107.9 4.95002 107.97 4.99202C108.208 5.13202 108.642 5.28602 108.88 5.28602C109.16 5.28602 109.398 5.25802 109.79 5.17402C110.154 5.09002 110.42 5.00602 110.84 4.85202C110.868 4.32002 110.882 3.92802 110.882 3.48002C110.882 3.22802 110.826 2.99002 110.714 2.90602C110.56 2.78002 110.35 2.68202 110.084 2.61202C110.014 2.59802 109.986 2.57002 109.986 2.52802C109.986 2.47202 110.042 2.41602 110.098 2.37402C110.476 2.13602 110.924 1.96802 111.092 1.96802C111.26 1.96802 111.568 2.08002 111.946 2.30402C112.212 2.45802 112.366 2.65402 112.366 2.82202C112.366 2.96202 112.338 3.04602 112.254 3.17202C112.142 3.34002 112.1 3.45202 112.072 3.57802C112.03 3.88602 112.002 4.15202 111.974 4.47402C112.422 4.30602 112.604 4.20802 112.772 4.01202C112.814 4.01202 112.856 4.01202 112.898 4.01202C113.542 4.01202 114.018 4.30602 114.018 4.64202C114.018 4.92202 113.864 5.02002 113.332 5.24402C112.856 5.44002 112.338 5.63602 111.848 5.81802C111.708 7.52602 111.652 8.53402 111.54 10.914C111.736 11.852 112.17 12.258 113.206 12.258C115.502 12.258 116.454 11.628 116.454 9.33202C116.454 8.77202 116.44 8.26802 116.37 7.52602C116.37 7.47002 116.398 7.42802 116.44 7.42802C116.482 7.42802 116.51 7.44202 116.538 7.48402C116.972 8.38002 117.28 9.62602 117.28 10.508C117.28 12.678 115.782 13.588 113.514 13.588C112.1 13.588 111.316 13.112 110.91 12.272C110.63 12.608 110.336 12.65 110.084 12.65C109.846 12.65 109.566 12.524 109.328 12.258C108.838 11.656 108.418 10.83 108.418 10.116C108.418 9.36002 108.796 8.77202 109.454 8.39402C109.678 8.28202 109.846 8.24002 109.986 8.24002C110.154 8.24002 110.364 8.35202 110.602 8.71602C110.644 8.00202 110.714 6.89602 110.742 6.18202ZM110.35 10.704C110.28 10.312 110.154 9.90602 110.042 9.62602C109.902 9.30402 109.776 9.13602 109.594 9.12202C109.314 9.12202 108.824 9.58402 108.824 10.172C108.824 10.382 108.922 10.648 109.09 10.872C109.3 11.152 109.566 11.362 109.832 11.376C110 11.376 110.28 11.236 110.35 10.704ZM116.356 6.22402C116.356 6.16802 116.398 6.14002 116.44 6.12602C117.07 5.87402 117.406 5.72002 117.616 5.58002C117.784 5.46802 117.868 5.32802 117.868 5.13202C117.868 4.92202 117.7 4.60002 117.35 4.34802C117.014 4.11002 116.65 3.94202 116.146 3.92802C116.076 3.92802 116.034 3.90002 116.034 3.84402C116.034 3.78802 116.118 3.73202 116.286 3.69002C116.496 3.63402 116.748 3.60602 117.014 3.60602C117.448 3.60602 118.26 3.78802 118.708 4.13802C119.24 4.51602 119.618 5.04802 119.618 5.63602C119.618 6.18202 119.254 6.53202 118.848 6.53202C118.694 6.53202 118.47 6.47602 118.316 6.42002C118.092 6.35002 117.77 6.25202 117.126 6.25202C116.944 6.25202 116.734 6.26602 116.496 6.28002C116.412 6.28002 116.356 6.26602 116.356 6.22402Z" fill="#DC0B28"/>
<path d="M105.03 10.508C105.072 10.508 105.1 10.536 105.1 10.564C105.1 10.592 105.072 10.634 105.016 10.704C103.756 12.286 101.306 13.602 99.1638 13.602C97.1478 13.602 96.3918 12.776 96.3918 10.298C96.3918 9.55605 96.4758 7.14805 96.5598 3.92805C96.5738 3.57805 96.5738 3.28405 96.5738 3.15805C96.5738 2.92005 96.4898 2.80805 96.3358 2.68205C96.1118 2.52805 95.9018 2.44405 95.6918 2.38805C95.5938 2.36005 95.5518 2.33205 95.5518 2.29005C95.5518 2.24805 95.5938 2.20605 95.6638 2.16405C96.1118 1.88405 96.5038 1.80005 96.7278 1.80005C96.9798 1.80005 97.3298 1.92605 97.7358 2.17805C98.2398 2.51405 98.4638 2.73805 98.4638 2.99005C98.4638 3.15805 98.3518 3.35405 98.2398 3.53605C98.1558 3.67605 98.0998 3.92805 98.0718 4.19405C97.8898 5.88805 97.7078 9.01005 97.7078 10.382C97.7078 11.852 98.0158 12.328 99.2758 12.328C101.222 12.328 103.014 11.74 104.834 10.606C104.96 10.536 104.988 10.508 105.03 10.508Z" fill="#DC0B28"/>
<path d="M81.3419 9.14996H84.6739C84.6739 8.72996 84.6599 8.44996 84.6179 7.83396C86.6199 8.00196 86.7459 8.11396 86.7459 8.32396C86.7459 8.47796 86.6759 8.54796 86.2559 8.75796V9.14996H89.2239C90.1199 8.04396 90.1619 8.01596 90.3019 8.01596C90.4419 8.01596 90.4839 8.02996 91.0859 8.60396C91.6319 9.12196 91.6599 9.16396 91.6599 9.27596C91.6599 9.38796 91.6039 9.44396 91.5059 9.44396H86.3679C86.7179 9.86396 87.4879 10.452 88.5799 10.998C89.6159 11.516 91.1839 12.006 92.1639 12.174C92.2479 12.188 92.2479 12.286 92.1639 12.314C91.6459 12.538 91.1279 13.084 90.7639 13.602C90.5959 13.84 90.5539 13.868 90.4279 13.868C90.3299 13.868 90.2599 13.854 90.0919 13.784C89.5179 13.56 88.9439 13.224 88.2299 12.622C87.1379 11.684 86.4939 10.592 86.1719 9.55596L86.2279 11.334C86.2699 12.986 86.2839 13.504 86.2839 13.77C86.2839 14.148 86.0599 14.316 85.2759 14.316C84.7859 14.316 84.6319 14.19 84.6319 13.854C84.6319 13.532 84.6739 12.706 84.7019 11.446L84.7299 10.662C83.3579 12.23 81.5379 13.392 79.0459 14.064C78.9619 14.092 78.8919 13.938 78.9759 13.91C80.7259 13.182 82.5739 11.236 83.5259 9.44396H81.3419C80.8939 9.44396 80.2639 9.45796 79.5919 9.54196L79.4659 9.05196C80.2219 9.13596 80.8799 9.14996 81.3419 9.14996ZM85.1079 2.97596H86.3119C86.8159 2.38796 86.8719 2.37396 86.9839 2.37396C87.1099 2.37396 87.1659 2.40196 87.5999 2.76596C88.1599 3.24196 88.2159 3.31196 88.2159 3.42396C88.2159 3.54996 88.1879 3.59196 87.8799 3.84396V5.25796C88.0899 5.24396 88.4819 5.22996 88.6359 5.22996C90.7499 5.22996 91.5479 6.01396 91.5479 6.76996C91.5479 7.30196 91.1559 7.65196 90.7499 7.65196C90.3439 7.65196 90.2319 7.58196 89.8399 7.04996C89.3079 6.33596 88.6499 5.80396 87.8799 5.49596C87.8939 6.48996 87.9079 7.14796 87.9079 7.24596C87.9079 7.65196 87.7399 7.90396 86.8999 7.90396C86.5359 7.90396 86.4519 7.79196 86.4519 7.38596V7.35796H84.4079V7.67996C84.4079 8.07196 84.1699 8.23996 83.6099 8.23996C83.1619 8.23996 83.0779 8.15596 83.0779 7.77796C83.0779 7.62396 83.0919 6.85396 83.1059 5.81796C82.3499 6.41996 81.5659 7.03596 80.6839 7.72196C80.5719 8.08596 80.4739 8.19796 80.3479 8.19796C80.1799 8.19796 80.0959 8.12796 79.1299 6.32196C79.4659 6.27996 79.9699 6.20996 80.2639 6.13996C80.9499 5.98596 82.0839 5.71996 83.1059 5.43996V5.17396C83.1059 3.99796 83.1059 3.10196 83.0779 2.51396C83.8339 2.70996 84.2539 2.82196 84.4779 2.91996C84.5479 2.40196 84.5759 2.05196 84.6039 1.61796C84.6179 1.36596 84.6179 1.23996 84.6179 0.959961C86.6199 1.28196 86.6619 1.35196 86.6619 1.53396C86.6619 1.67396 86.5639 1.77196 86.0459 1.93996C85.6539 2.38796 85.4159 2.63996 85.1079 2.97596ZM86.4519 3.26996H84.6739C84.6179 3.32596 84.5339 3.38196 84.4079 3.43796V5.01996H86.4519V3.26996ZM86.4519 5.31396H84.4079V7.06396H86.4519V5.31396ZM79.7319 2.59796C79.6619 2.55596 79.7039 2.45796 79.7879 2.45796C81.4399 2.47196 82.5599 3.12996 82.5599 4.12396C82.5599 4.69796 82.1119 5.11796 81.6359 5.11796C81.1459 5.11796 80.9219 4.83796 80.8239 4.31996C80.6699 3.52196 80.2919 2.91996 79.7319 2.59796ZM88.1739 4.97796C88.0899 5.00596 88.0199 4.92196 88.0759 4.86596C88.5939 4.30596 89.1399 3.50796 89.6019 2.77996C89.7419 2.55596 89.8539 2.35996 89.9659 2.14996C91.5619 3.42396 91.6319 3.47996 91.6319 3.67596C91.6319 3.84396 91.5059 3.89996 91.0579 3.87196C90.0639 4.27796 89.1819 4.61396 88.1739 4.97796Z" fill="#DC0B28"/>
<path d="M74.3281 3.29799C74.2861 3.26999 74.2721 3.22799 74.2721 3.19999C74.2721 3.15799 74.3281 3.12999 74.3841 3.12999C74.8741 3.12999 75.5321 3.33999 75.9381 3.57799C76.4141 3.87199 76.6801 4.17999 76.6801 4.55799C76.6801 4.89399 76.4841 5.13199 76.1901 5.13199C75.9381 5.13199 75.7841 4.99199 75.5741 4.59999C75.3921 4.26399 74.9441 3.68999 74.3281 3.29799ZM75.5601 2.33199C75.5041 2.30399 75.4901 2.28999 75.4901 2.26199C75.4901 2.21999 75.5041 2.17799 75.5881 2.16399C75.7141 2.14999 75.8121 2.14999 75.9521 2.14999C76.2881 2.14999 76.8201 2.27599 77.1421 2.40199C77.5621 2.58399 78.0241 2.87799 78.0241 3.38199C78.0241 3.73199 77.8281 3.89999 77.5481 3.89999C77.3101 3.89999 77.1701 3.77399 77.0161 3.53599C76.7081 3.07399 76.1481 2.61199 75.5601 2.33199ZM68.5881 6.69999C69.2181 5.94399 69.6381 5.45399 70.2121 4.76799C70.6181 4.29199 70.9821 3.82999 71.1921 3.45199C71.3741 3.12999 71.4581 2.91999 71.4581 2.66799C71.4581 2.48599 71.3041 2.24799 70.8281 1.93999C70.7861 1.91199 70.7581 1.88399 70.7581 1.85599C70.7581 1.82799 70.7861 1.79999 70.8281 1.78599C70.9401 1.74399 71.2061 1.68799 71.4581 1.68799C71.7101 1.68799 72.2281 1.79999 72.9421 2.44399C73.3201 2.77999 73.4741 2.97599 73.4741 3.26999C73.4741 3.59199 73.2641 3.74599 72.9421 3.99799C71.4441 5.17399 70.1561 6.23799 69.3441 7.06399C69.1621 7.24599 69.1061 7.37199 69.1061 7.58199C69.1061 7.77799 69.2041 7.93199 69.6801 8.28199C71.4581 9.58399 72.5921 10.48 73.1661 11.25C73.5721 11.796 73.8101 12.3 73.8101 12.804C73.8101 13.448 73.4741 13.756 72.9561 13.756C72.4801 13.756 72.2421 13.476 71.8221 12.58C71.1081 11.082 70.0581 9.93399 68.7701 8.72999C68.3081 8.29599 68.1821 8.05799 68.1821 7.65199C68.1821 7.23199 68.3081 7.03599 68.5881 6.69999Z" fill="#DC0B28"/>
<path d="M57.5559 6.85406V5.37006C56.0159 5.60806 54.9379 5.86006 53.9859 6.18206C53.7199 6.26606 53.4679 6.35006 53.2999 6.46206C53.1319 6.57406 53.0059 6.61606 52.9079 6.61606C52.6699 6.61606 52.3479 6.51806 52.0119 6.15406C51.4659 5.60806 51.2979 5.28606 51.2979 4.83806C51.2979 4.76806 51.3399 4.72606 51.3819 4.72606C51.4099 4.72606 51.4379 4.74006 51.4799 4.76806C51.8999 5.07606 52.1659 5.17406 52.5579 5.17406C52.7539 5.17406 52.9639 5.17406 53.4399 5.09006C54.8119 4.86606 56.0859 4.64206 57.5419 4.41806C57.5279 3.98406 57.5139 3.66206 57.4859 3.20006C57.4579 2.61206 57.3879 2.51406 57.2339 2.38806C57.1219 2.30406 56.7159 2.24806 56.4779 2.23406C56.3939 2.23406 56.3519 2.17806 56.3519 2.13606C56.3519 2.09406 56.3659 2.03806 56.4219 1.99606C57.0239 1.59006 57.4159 1.53406 57.6259 1.53406C57.7799 1.53406 58.0739 1.63206 58.4379 1.87006C58.8999 2.15006 59.1239 2.36006 59.1239 2.61206C59.1239 2.76606 59.0539 2.86406 58.9419 3.00406C58.7739 3.21406 58.7459 3.39606 58.7459 4.25006C59.3619 4.16606 59.9079 4.08206 60.5519 3.99806C60.8039 3.97006 60.9999 3.92806 61.1959 3.83006C61.3359 3.76006 61.4339 3.71806 61.5039 3.71806C61.7559 3.71806 62.3019 3.83006 62.8339 4.09606C63.2679 4.32006 63.4219 4.51606 63.4219 4.83806C63.4219 5.16006 63.2399 5.28606 62.9179 5.28606C62.7639 5.28606 62.5259 5.24406 62.2179 5.18806C61.6579 5.07606 61.1819 5.04806 60.6219 5.04806C60.1179 5.04806 59.4319 5.13206 58.7179 5.21606C58.7179 5.94406 58.7179 6.74206 58.7179 7.47006C58.9419 8.04406 59.0119 8.43606 59.0119 8.95406C59.0119 10.0041 58.7319 10.9561 58.1999 11.7401C57.3739 12.9441 56.1699 13.6721 54.3639 14.0221H54.3219C54.2519 14.0221 54.1959 13.9941 54.1959 13.9381C54.1959 13.8821 54.2379 13.8261 54.3779 13.7701C55.8479 13.1261 56.7019 12.0621 57.1359 10.8441C55.8899 10.3961 55.2319 9.34606 55.2319 8.43606C55.2319 7.47006 56.2399 6.81206 57.1079 6.81206C57.2759 6.81206 57.4019 6.82606 57.5559 6.85406ZM57.0099 9.45806C57.2479 9.45806 57.4019 9.34606 57.4579 9.17806C57.5139 9.02406 57.5559 8.75806 57.5559 8.53406C57.5559 7.91806 57.1359 7.54006 56.6319 7.54006C56.1419 7.54006 55.6799 7.82006 55.6799 8.32406C55.6799 8.94006 56.5059 9.45806 57.0099 9.45806Z" fill="#DC0B28"/>
<path d="M43.7658 2.26198C44.3958 3.31198 45.5158 4.41798 46.9718 5.38398C48.0358 6.08398 49.2958 6.62998 50.2338 6.89598C50.3178 6.92398 50.3038 6.99398 50.2338 7.03598C49.7018 7.32998 49.3238 7.69398 48.9738 8.30998C48.8618 8.50598 48.8058 8.57598 48.6938 8.57598C48.5818 8.57598 48.4978 8.54798 48.3718 8.49198C47.3638 8.01598 46.3278 7.11998 45.6978 6.37798C44.7598 5.27198 44.0318 3.84398 43.5978 2.34598C42.3098 5.01998 39.2858 7.94598 36.8778 8.91198C36.7938 8.93998 36.7238 8.79998 36.7938 8.75798C38.2638 7.72198 40.4198 4.94998 41.5818 2.33198C41.7778 1.89798 41.9038 1.53398 41.9878 1.09998C44.2138 1.67398 44.2418 1.71598 44.2418 1.91198C44.2418 2.05198 44.1018 2.16398 43.7658 2.26198ZM40.8118 8.91198H44.7598C45.4178 8.12798 45.4738 8.08598 45.5998 8.08598C45.7678 8.08598 45.8378 8.09998 46.5518 8.72998C47.0138 9.13598 47.0558 9.21998 47.0558 9.34598C47.0558 9.49998 46.9998 9.54198 46.4818 9.83598C46.0058 11.348 45.5018 12.818 44.9838 14.022C44.8998 14.218 44.6338 14.33 44.4238 14.33C43.7798 14.33 43.2898 14.12 43.2898 13.826C43.2898 13.7 43.3178 13.602 43.4298 13.364C43.8778 12.384 44.4798 10.816 44.9838 9.20598H40.8118C40.3078 9.20598 39.8038 9.21998 39.1318 9.30398L39.0058 8.81398C39.7758 8.89798 40.3078 8.91198 40.8118 8.91198ZM40.6998 7.23198L40.5598 6.72798C41.2178 6.81198 41.7218 6.83998 42.1278 6.83998H43.6118C44.3958 5.87398 44.4238 5.84598 44.5358 5.84598C44.6338 5.84598 44.6758 5.87398 45.2918 6.44798C45.7118 6.83998 45.7398 6.88198 45.7398 6.97998C45.7398 7.07798 45.6978 7.13398 45.5998 7.13398H42.1278C41.8058 7.13398 41.3438 7.14798 40.6998 7.23198Z" fill="#DC0B28"/>
<path d="M180.271 23.496L178.175 24.072C177.855 22.728 177.119 22.04 175.967 22.04C174.655 22.04 173.903 22.664 173.903 23.656C173.903 24.744 174.383 25.24 176.175 25.736L176.831 25.928C179.663 26.696 180.463 27.768 180.463 29.592C180.463 31.768 178.959 33.272 175.983 33.272C173.567 33.272 171.887 32.216 171.295 30.056L173.359 29.4C173.679 30.84 174.623 31.64 175.935 31.64C177.567 31.64 178.303 30.936 178.303 29.864C178.303 28.792 177.919 28.296 175.887 27.72L175.247 27.528C172.607 26.744 171.759 25.704 171.759 23.8C171.759 21.928 173.231 20.408 175.903 20.408C178.079 20.408 179.615 21.432 180.271 23.496Z" fill="#DC0B28"/>
<path d="M170.36 20.616V22.36H166.664V33.032H164.488V22.36H160.824V20.616H170.36Z" fill="#DC0B28"/>
<path d="M159.633 20.616V22.328H153.601V25.608H158.161V27.32H153.601V31.32H159.761V33.032H151.441V20.616H159.633Z" fill="#DC0B28"/>
<path d="M149.258 20.616V22.328H143.226V25.608H147.786V27.32H143.226V31.32H149.386V33.032H141.066V20.616H149.258Z" fill="#DC0B28"/>
<path d="M139.209 20.616L136.729 33.032H134.073L133.001 27.256C132.697 25.592 132.537 24.216 132.313 22.6H132.089C131.865 24.232 131.689 25.608 131.401 27.192L130.393 33.032H127.737L125.321 20.616H127.513L128.409 26.28C128.633 27.8 128.841 29.304 129.033 30.888H129.257C129.481 29.336 129.641 27.816 129.913 26.328L130.921 20.616H133.689L134.729 26.52C134.969 27.928 135.161 29.24 135.337 30.888H135.561C135.801 29.224 135.945 27.96 136.185 26.424L137.145 20.616H139.209Z" fill="#DC0B28"/>
<path d="M124.13 23.496L122.034 24.072C121.714 22.728 120.978 22.04 119.826 22.04C118.514 22.04 117.762 22.664 117.762 23.656C117.762 24.744 118.242 25.24 120.034 25.736L120.69 25.928C123.522 26.696 124.322 27.768 124.322 29.592C124.322 31.768 122.818 33.272 119.842 33.272C117.426 33.272 115.746 32.216 115.154 30.056L117.218 29.4C117.538 30.84 118.482 31.64 119.794 31.64C121.426 31.64 122.162 30.936 122.162 29.864C122.162 28.792 121.778 28.296 119.746 27.72L119.106 27.528C116.466 26.744 115.618 25.704 115.618 23.8C115.618 21.928 117.09 20.408 119.762 20.408C121.938 20.408 123.474 21.432 124.13 23.496Z" fill="#DC0B28"/>
<path d="M109.266 29.08H103.33C103.346 30.744 104.082 31.848 105.538 31.848C106.45 31.848 107.09 31.336 107.394 30.184L109.218 30.712C108.674 32.392 107.474 33.256 105.522 33.256C102.898 33.256 101.362 31.576 101.362 28.696C101.362 25.832 102.978 24.056 105.346 24.056C107.586 24.056 109.266 25.688 109.266 28.664V29.08ZM103.362 27.752H107.298C107.202 26.28 106.578 25.448 105.378 25.448C104.162 25.448 103.458 26.344 103.362 27.752Z" fill="#DC0B28"/>
<path d="M93.951 24.248V25.784C94.655 24.744 95.695 24.056 96.831 24.056C98.287 24.056 99.343 25 99.343 26.696V33.032H97.279V27.256C97.279 26.248 96.847 25.784 96.063 25.784C95.359 25.784 94.559 26.36 94.015 27.272V33.032H91.999V24.248H93.951Z" fill="#DC0B28"/>
<path d="M89.4212 24.248V33.032H87.4052V24.248H89.4212ZM89.5012 20.616V22.68H87.3252V20.616H89.5012Z" fill="#DC0B28"/>
<path d="M83.7428 21.384V24.248H85.7108V25.72H83.7428V30.536C83.7428 31.416 84.0948 31.8 84.8308 31.8C85.1668 31.8 85.4868 31.784 85.8548 31.704L85.7748 33.144C85.2148 33.224 84.7348 33.24 84.2068 33.24C82.5428 33.24 81.7588 32.52 81.7588 30.904V25.72H80.4468V24.248H81.7588V21.832L83.7428 21.384Z" fill="#DC0B28"/>
<path d="M73.4041 24.248V25.784C74.1081 24.744 75.1481 24.056 76.2841 24.056C77.7401 24.056 78.7961 25 78.7961 26.696V33.032H76.7321V27.256C76.7321 26.248 76.3001 25.784 75.5161 25.784C74.8121 25.784 74.0121 26.36 73.4681 27.272V33.032H71.4521V24.248H73.4041Z" fill="#DC0B28"/>
<path d="M69.4221 29.08H63.4861C63.5021 30.744 64.2381 31.848 65.6941 31.848C66.6061 31.848 67.2461 31.336 67.5501 30.184L69.3741 30.712C68.8301 32.392 67.6301 33.256 65.6781 33.256C63.0541 33.256 61.5181 31.576 61.5181 28.696C61.5181 25.832 63.1341 24.056 65.5021 24.056C67.7421 24.056 69.4221 25.688 69.4221 28.664V29.08ZM63.5181 27.752H67.4541C67.3581 26.28 66.7341 25.448 65.5341 25.448C64.3181 25.448 63.6141 26.344 63.5181 27.752Z" fill="#DC0B28"/>
<path d="M59.4525 20.392V33.032H57.4365V20.392H59.4525Z" fill="#DC0B28"/>
<path d="M49.7561 26.968L47.8681 26.456C48.3161 24.872 49.5961 24.04 51.5001 24.04C53.7721 24.04 54.9081 25 54.9081 26.952V30.44C54.9081 31.464 54.9721 32.296 55.0521 33.032H53.1961C53.1321 32.648 53.1001 32.392 53.0521 31.88C52.4281 32.776 51.4041 33.24 50.2841 33.24C48.6681 33.24 47.5801 32.232 47.5801 30.632C47.5801 29.096 48.5401 28.104 50.4441 27.736C51.1961 27.592 52.0601 27.512 52.9561 27.48V26.984C52.9561 25.88 52.4921 25.432 51.4361 25.432C50.6041 25.432 49.9321 25.96 49.7561 26.968ZM52.9561 30.36V28.728C52.1081 28.744 51.4841 28.856 50.9401 28.984C49.9961 29.208 49.5001 29.688 49.5001 30.472C49.5001 31.304 49.9961 31.8 50.9081 31.8C51.6761 31.8 52.4441 31.32 52.9561 30.36Z" fill="#DC0B28"/>
<path d="M47.1082 20.616L43.3162 33.032H40.6282L36.8682 20.616H39.1882L40.8042 26.456C41.2682 28.072 41.5882 29.528 41.9722 31.048H42.1962C42.5482 29.56 42.9002 28.12 43.3482 26.52L44.9802 20.616H47.1082Z" fill="#DC0B28"/>
<path d="M20.0404 19.4649C20.336 19.1748 20.8109 19.1791 21.101 19.4746L27.5355 26.0313C27.8234 26.3248 27.8212 26.796 27.5307 27.0869L21.0961 33.5283C20.8034 33.8214 20.3286 33.822 20.0355 33.5293C19.7426 33.2366 19.7429 32.7618 20.0355 32.4688L25.9438 26.5518L20.0307 20.5254C19.7406 20.2298 19.7449 19.755 20.0404 19.4649Z" fill="#DC0B28"/>
<path d="M13.9745 19.4649C14.2701 19.1748 14.7449 19.1791 15.0351 19.4746L21.4696 26.0313C21.7575 26.3248 21.7553 26.796 21.4647 27.0869L15.0302 33.5283C14.7375 33.8214 14.2627 33.822 13.9696 33.5293C13.6767 33.2366 13.677 32.7618 13.9696 32.4688L19.8778 26.5518L13.9647 20.5254C13.6747 20.2298 13.679 19.755 13.9745 19.4649Z" fill="#DC0B28"/>
</g>
<defs>
<linearGradient id="paint0_linear_146_28340" x1="-24.5" y1="-46" x2="350.5" y2="-46" gradientUnits="userSpaceOnUse">
<stop stop-color="#FF627D"/>
<stop offset="1" stop-color="#FB7596"/>
</linearGradient>
</defs>
</svg>
