<svg width="335" height="33" viewBox="0 0 335 33" fill="none" xmlns="http://www.w3.org/2000/svg">
<mask id="mask0_146_28338" style="mask-type:alpha" maskUnits="userSpaceOnUse" x="0" y="0" width="335" height="33">
<path d="M0 0H335V33H0V0Z" fill="#D9D9D9"/>
</mask>
<g mask="url(#mask0_146_28338)">
<path d="M-24.5 -84H350.5V214H-24.5V-84Z" fill="url(#paint0_linear_146_28338)" fill-opacity="0.79"/>
<path d="M-14.5 -62C-14.5 -64.7614 -12.2614 -67 -9.5 -67L335.5 -67C338.261 -67 340.5 -64.7614 340.5 -62V199C340.5 201.761 338.261 204 335.5 204H-9.5C-12.2614 204 -14.5 201.761 -14.5 199L-14.5 -62Z" fill="#FFFEFE"/>
<path d="M198.378 5.18202C197.608 5.37802 197.244 5.43402 197.02 5.43402C196.782 5.43402 196.502 5.35002 196.292 5.21002C195.9 4.94402 195.564 4.45402 195.382 4.10402C195.368 4.07602 195.354 4.03402 195.354 4.00602C195.354 3.96402 195.396 3.92202 195.452 3.92202C195.48 3.92202 195.536 3.95002 195.606 3.99202C195.844 4.13202 196.278 4.28602 196.516 4.28602C196.796 4.28602 197.034 4.25802 197.426 4.17402C197.79 4.09002 198.056 4.00602 198.476 3.85202C198.504 3.32002 198.518 2.92802 198.518 2.48002C198.518 2.22802 198.462 1.99002 198.35 1.90602C198.196 1.78002 197.986 1.68202 197.72 1.61202C197.65 1.59802 197.622 1.57002 197.622 1.52802C197.622 1.47202 197.678 1.41602 197.734 1.37402C198.112 1.13602 198.56 0.968018 198.728 0.968018C198.896 0.968018 199.204 1.08002 199.582 1.30402C199.848 1.45802 200.002 1.65402 200.002 1.82202C200.002 1.96202 199.974 2.04602 199.89 2.17202C199.778 2.34002 199.736 2.45202 199.708 2.57802C199.666 2.88602 199.638 3.15202 199.61 3.47402C200.058 3.30602 200.24 3.20802 200.408 3.01202C200.45 3.01202 200.492 3.01202 200.534 3.01202C201.178 3.01202 201.654 3.30602 201.654 3.64202C201.654 3.92202 201.5 4.02002 200.968 4.24402C200.492 4.44002 199.974 4.63602 199.484 4.81802C199.344 6.52602 199.288 7.53402 199.176 9.91402C199.372 10.852 199.806 11.258 200.842 11.258C203.138 11.258 204.09 10.628 204.09 8.33202C204.09 7.77202 204.076 7.26802 204.006 6.52602C204.006 6.47002 204.034 6.42802 204.076 6.42802C204.118 6.42802 204.146 6.44202 204.174 6.48402C204.608 7.38002 204.916 8.62602 204.916 9.50802C204.916 11.678 203.418 12.588 201.15 12.588C199.736 12.588 198.952 12.112 198.546 11.272C198.266 11.608 197.972 11.65 197.72 11.65C197.482 11.65 197.202 11.524 196.964 11.258C196.474 10.656 196.054 9.83002 196.054 9.11602C196.054 8.36002 196.432 7.77202 197.09 7.39402C197.314 7.28202 197.482 7.24002 197.622 7.24002C197.79 7.24002 198 7.35202 198.238 7.71602C198.28 7.00202 198.35 5.89602 198.378 5.18202ZM197.986 9.70402C197.916 9.31202 197.79 8.90602 197.678 8.62602C197.538 8.30402 197.412 8.13602 197.23 8.12202C196.95 8.12202 196.46 8.58402 196.46 9.17202C196.46 9.38202 196.558 9.64802 196.726 9.87202C196.936 10.152 197.202 10.362 197.468 10.376C197.636 10.376 197.916 10.236 197.986 9.70402ZM203.992 5.22402C203.992 5.16802 204.034 5.14002 204.076 5.12602C204.706 4.87402 205.042 4.72002 205.252 4.58002C205.42 4.46802 205.504 4.32802 205.504 4.13202C205.504 3.92202 205.336 3.60002 204.986 3.34802C204.65 3.11002 204.286 2.94202 203.782 2.92802C203.712 2.92802 203.67 2.90002 203.67 2.84402C203.67 2.78802 203.754 2.73202 203.922 2.69002C204.132 2.63402 204.384 2.60602 204.65 2.60602C205.084 2.60602 205.896 2.78802 206.344 3.13802C206.876 3.51602 207.254 4.04802 207.254 4.63602C207.254 5.18202 206.89 5.53202 206.484 5.53202C206.33 5.53202 206.106 5.47602 205.952 5.42002C205.728 5.35002 205.406 5.25202 204.762 5.25202C204.58 5.25202 204.37 5.26602 204.132 5.28002C204.048 5.28002 203.992 5.26602 203.992 5.22402Z" fill="#DC0B28"/>
<path d="M192.666 9.50805C192.708 9.50805 192.736 9.53605 192.736 9.56405C192.736 9.59205 192.708 9.63405 192.652 9.70405C191.392 11.286 188.942 12.602 186.8 12.602C184.784 12.602 184.028 11.776 184.028 9.29805C184.028 8.55605 184.112 6.14805 184.196 2.92805C184.21 2.57805 184.21 2.28405 184.21 2.15805C184.21 1.92005 184.126 1.80805 183.972 1.68205C183.748 1.52805 183.538 1.44405 183.328 1.38805C183.23 1.36005 183.188 1.33205 183.188 1.29005C183.188 1.24805 183.23 1.20605 183.3 1.16405C183.748 0.884049 184.14 0.800049 184.364 0.800049C184.616 0.800049 184.966 0.926049 185.372 1.17805C185.876 1.51405 186.1 1.73805 186.1 1.99005C186.1 2.15805 185.988 2.35405 185.876 2.53605C185.792 2.67605 185.736 2.92805 185.708 3.19405C185.526 4.88805 185.344 8.01005 185.344 9.38205C185.344 10.852 185.652 11.328 186.912 11.328C188.858 11.328 190.65 10.74 192.47 9.60605C192.596 9.53605 192.624 9.50805 192.666 9.50805Z" fill="#DC0B28"/>
<path d="M168.979 8.14996H172.311C172.311 7.72996 172.297 7.44996 172.255 6.83396C174.257 7.00196 174.383 7.11396 174.383 7.32396C174.383 7.47796 174.313 7.54796 173.893 7.75796V8.14996H176.861C177.757 7.04396 177.799 7.01596 177.939 7.01596C178.079 7.01596 178.121 7.02996 178.723 7.60396C179.269 8.12196 179.297 8.16396 179.297 8.27596C179.297 8.38796 179.241 8.44396 179.143 8.44396H174.005C174.355 8.86396 175.125 9.45196 176.217 9.99796C177.253 10.516 178.821 11.006 179.801 11.174C179.885 11.188 179.885 11.286 179.801 11.314C179.283 11.538 178.765 12.084 178.401 12.602C178.233 12.84 178.191 12.868 178.065 12.868C177.967 12.868 177.897 12.854 177.729 12.784C177.155 12.56 176.581 12.224 175.867 11.622C174.775 10.684 174.131 9.59196 173.809 8.55596L173.865 10.334C173.907 11.986 173.921 12.504 173.921 12.77C173.921 13.148 173.697 13.316 172.913 13.316C172.423 13.316 172.269 13.19 172.269 12.854C172.269 12.532 172.311 11.706 172.339 10.446L172.367 9.66196C170.995 11.23 169.175 12.392 166.683 13.064C166.599 13.092 166.529 12.938 166.613 12.91C168.363 12.182 170.211 10.236 171.163 8.44396H168.979C168.531 8.44396 167.901 8.45796 167.229 8.54196L167.103 8.05196C167.859 8.13596 168.517 8.14996 168.979 8.14996ZM172.745 1.97596H173.949C174.453 1.38796 174.509 1.37396 174.621 1.37396C174.747 1.37396 174.803 1.40196 175.237 1.76596C175.797 2.24196 175.853 2.31196 175.853 2.42396C175.853 2.54996 175.825 2.59196 175.517 2.84396V4.25796C175.727 4.24396 176.119 4.22996 176.273 4.22996C178.387 4.22996 179.185 5.01396 179.185 5.76996C179.185 6.30196 178.793 6.65196 178.387 6.65196C177.981 6.65196 177.869 6.58196 177.477 6.04996C176.945 5.33596 176.287 4.80396 175.517 4.49596C175.531 5.48996 175.545 6.14796 175.545 6.24596C175.545 6.65196 175.377 6.90396 174.537 6.90396C174.173 6.90396 174.089 6.79196 174.089 6.38596V6.35796H172.045V6.67996C172.045 7.07196 171.807 7.23996 171.247 7.23996C170.799 7.23996 170.715 7.15596 170.715 6.77796C170.715 6.62396 170.729 5.85396 170.743 4.81796C169.987 5.41996 169.203 6.03596 168.321 6.72196C168.209 7.08596 168.111 7.19796 167.985 7.19796C167.817 7.19796 167.733 7.12796 166.767 5.32196C167.103 5.27996 167.607 5.20996 167.901 5.13996C168.587 4.98596 169.721 4.71996 170.743 4.43996V4.17396C170.743 2.99796 170.743 2.10196 170.715 1.51396C171.471 1.70996 171.891 1.82196 172.115 1.91996C172.185 1.40196 172.213 1.05196 172.241 0.617961C172.255 0.365961 172.255 0.239961 172.255 -0.0400391C174.257 0.281961 174.299 0.351961 174.299 0.53396C174.299 0.673961 174.201 0.77196 173.683 0.939961C173.291 1.38796 173.053 1.63996 172.745 1.97596ZM174.089 2.26996H172.311C172.255 2.32596 172.171 2.38196 172.045 2.43796V4.01996H174.089V2.26996ZM174.089 4.31396H172.045V6.06396H174.089V4.31396ZM167.369 1.59796C167.299 1.55596 167.341 1.45796 167.425 1.45796C169.077 1.47196 170.197 2.12996 170.197 3.12396C170.197 3.69796 169.749 4.11796 169.273 4.11796C168.783 4.11796 168.559 3.83796 168.461 3.31996C168.307 2.52196 167.929 1.91996 167.369 1.59796ZM175.811 3.97796C175.727 4.00596 175.657 3.92196 175.713 3.86596C176.231 3.30596 176.777 2.50796 177.239 1.77996C177.379 1.55596 177.491 1.35996 177.603 1.14996C179.199 2.42396 179.269 2.47996 179.269 2.67596C179.269 2.84396 179.143 2.89996 178.695 2.87196C177.701 3.27796 176.819 3.61396 175.811 3.97796Z" fill="#DC0B28"/>
<path d="M158.703 7.688V7.212C158.703 6.372 158.381 6.162 157.975 6.162C157.625 6.162 157.345 6.302 156.897 6.68C156.449 7.058 155.973 7.548 155.469 8.276C155.259 8.57 155.007 8.71 154.783 8.71C154.405 8.71 154.167 8.444 154.167 7.926C154.167 7.562 154.335 7.338 154.685 7.002C155.427 6.316 156.477 5.336 157.149 4.286C156.841 4.356 156.463 4.426 156.099 4.496C155.861 4.538 155.665 4.552 155.539 4.552C155.217 4.552 154.909 4.482 154.587 4.132C154.391 3.922 154.181 3.642 153.985 3.306C153.971 3.278 153.957 3.222 153.957 3.18C153.957 3.152 153.985 3.124 154.027 3.124C154.055 3.124 154.111 3.152 154.167 3.18C154.503 3.348 154.895 3.46 155.245 3.46C155.749 3.46 156.561 3.32 157.779 3.012C158.045 2.41 158.171 1.976 158.171 1.626C158.171 1.458 158.115 1.374 157.975 1.276C157.877 1.192 157.639 1.108 157.485 1.08C157.415 1.066 157.373 1.052 157.373 1.01C157.373 0.967996 157.401 0.925997 157.513 0.869997C157.737 0.743997 158.073 0.645996 158.255 0.645996C158.605 0.645996 158.997 0.771996 159.347 1.01C159.613 1.206 159.725 1.36 159.725 1.5C159.725 1.584 159.669 1.766 159.557 1.878C159.375 2.06 159.179 2.424 159.053 2.662C159.389 2.536 159.669 2.438 159.809 2.326C160.635 2.368 160.929 2.592 160.929 2.956C160.929 3.236 160.719 3.334 160.523 3.418C160.201 3.558 159.459 3.768 158.297 4.104C157.849 4.818 157.513 5.322 156.967 6.05C157.345 5.826 157.709 5.714 158.115 5.714C158.983 5.714 159.557 6.134 159.809 7.184C160.817 6.694 161.601 6.302 162.147 6.008C162.413 5.868 162.539 5.742 162.539 5.574C162.539 5.392 162.441 5.238 162.203 5.07C162.161 5.042 162.133 5.014 162.133 4.972C162.133 4.902 162.245 4.86 162.455 4.86C162.875 4.86 163.197 4.958 163.785 5.336C164.275 5.672 164.513 5.966 164.513 6.232C164.513 6.568 164.373 6.652 163.491 6.904C162.875 7.058 161.167 7.73 159.921 8.22C159.935 8.542 159.935 9.046 159.935 9.676C159.935 10.264 159.739 10.656 159.347 10.656C158.899 10.656 158.633 10.39 158.633 9.802C158.633 9.592 158.661 9.2 158.661 8.766C157.345 9.326 156.743 9.858 156.743 10.488C156.743 11.146 157.527 11.37 158.605 11.37C159.711 11.37 160.691 11.216 161.307 10.922C162.469 10.964 162.903 11.412 162.903 11.832C162.903 12.196 162.553 12.406 161.909 12.49C161.307 12.56 160.649 12.602 159.543 12.602C157.373 12.602 156.155 11.944 156.155 10.558C156.155 9.704 156.841 8.906 158.703 7.688Z" fill="#DC0B28"/>
<path d="M147.909 2.61995C147.867 2.59195 147.853 2.56395 147.853 2.52195C147.853 2.47995 147.909 2.45195 147.965 2.45195C148.455 2.45195 149.113 2.66195 149.519 2.89995C149.995 3.17995 150.261 3.48795 150.261 3.87995C150.261 4.21595 150.065 4.43995 149.771 4.43995C149.519 4.43995 149.365 4.31395 149.155 3.92195C148.973 3.58595 148.525 3.01195 147.909 2.61995ZM149.141 1.63995C149.085 1.61195 149.071 1.59795 149.071 1.56995C149.071 1.52795 149.085 1.49995 149.169 1.48595C149.295 1.47195 149.393 1.47195 149.533 1.47195C149.869 1.47195 150.401 1.59795 150.723 1.70995C151.143 1.89195 151.605 2.19995 151.605 2.70395C151.605 3.03995 151.409 3.20795 151.129 3.20795C150.891 3.20795 150.751 3.08195 150.597 2.85795C150.289 2.39595 149.729 1.91995 149.141 1.63995ZM142.281 10.6839C141.651 11.2439 141.483 11.4259 141.105 11.8039C140.965 11.9439 140.755 12.0559 140.531 12.0559C140.279 12.0559 140.055 11.9299 139.719 11.6359C139.257 11.2299 139.131 10.9919 139.131 10.7399C139.131 10.5159 139.159 10.2359 139.271 9.98395C139.313 9.89995 139.341 9.82995 139.397 9.82995C139.439 9.82995 139.495 9.91395 139.523 9.95595C139.733 10.3059 139.887 10.4319 140.111 10.4319C140.293 10.4319 140.643 10.3059 141.007 10.1099C142.071 9.56395 143.499 8.73795 144.633 8.09395C144.157 7.60395 143.737 7.18395 143.555 6.94595C143.289 6.60995 143.247 6.25995 143.247 5.90995C143.247 5.58795 143.345 5.36395 143.541 5.08395C143.723 4.80395 144.241 4.20195 144.787 3.59995C144.871 3.51595 144.899 3.44595 144.899 3.36195C144.899 3.27795 144.871 3.24995 144.745 3.16595C143.877 2.59195 143.457 1.90595 143.457 1.37395C143.457 1.27595 143.457 1.14995 143.485 0.99595C143.499 0.92595 143.527 0.897949 143.569 0.897949C143.597 0.897949 143.625 0.92595 143.639 0.953949C143.821 1.31795 144.227 1.56995 145.011 1.91995C145.333 2.05995 145.725 2.18595 145.907 2.24195C146.369 2.39595 146.649 2.56395 146.873 2.81595C147.069 3.01195 147.167 3.27795 147.167 3.57195C147.167 4.00595 146.803 4.17395 146.369 4.17395C146.243 4.17395 146.075 4.17395 145.865 4.20195C145.417 4.25795 144.829 4.39795 144.199 4.88795C143.905 5.11195 143.709 5.44795 143.709 5.64395C143.709 5.99395 143.905 6.24595 144.143 6.48395C144.521 6.87595 145.053 7.26795 145.585 7.64595C146.215 7.43595 146.915 7.33795 147.531 7.33795C148.707 7.33795 149.813 7.70195 150.555 8.37395C151.171 8.89195 151.395 9.40995 151.395 9.91395C151.395 10.4599 151.031 10.8379 150.625 10.8379C150.331 10.8379 150.163 10.7679 149.967 10.7119C149.869 10.6839 149.631 10.6279 149.449 10.6139C149.141 10.5999 148.595 10.5859 147.979 10.5859C147.951 10.5859 147.881 10.5719 147.881 10.5439C147.881 10.5159 147.895 10.4879 147.979 10.4599C148.539 10.2639 149.099 9.98395 149.393 9.80195C149.491 9.73195 149.547 9.60595 149.547 9.43795C149.547 9.08795 149.281 8.61195 148.847 8.31795C148.259 7.92595 147.811 7.79995 147.139 7.79995C146.831 7.79995 146.383 7.91195 146.005 8.03795C146.943 8.82195 147.251 9.39595 147.251 10.0679C147.251 11.1459 146.215 11.8459 145.039 11.8459C144.801 11.8459 144.479 11.7619 144.171 11.5659C143.919 11.4119 143.681 11.2719 143.457 11.1739C143.135 11.0339 142.785 10.8939 142.281 10.6839ZM142.505 10.5439C143.289 10.6419 143.835 10.6559 144.311 10.6559C145.207 10.6559 145.753 10.3899 145.753 9.80195C145.753 9.43795 145.557 9.04595 145.025 8.52795C144.255 8.98995 143.527 9.56395 142.505 10.5439Z" fill="#DC0B28"/>
<path d="M130.857 2.50805H130.045C130.017 2.53605 129.947 2.57805 129.849 2.62005V3.57205C129.849 3.88005 129.933 3.99205 130.717 3.99205C131.473 3.99205 131.655 3.86605 132.005 3.43205C132.201 3.19405 132.341 2.95605 132.537 2.55005C132.579 2.48005 132.663 2.52205 132.649 2.60605C132.523 3.25005 132.509 3.36205 132.509 3.48805C132.509 3.62805 132.537 3.74005 132.593 3.83805C132.705 4.00605 132.761 4.13205 132.761 4.30005C132.761 4.72005 132.397 5.02805 130.731 5.02805C129.051 5.02805 128.813 4.77605 128.813 4.14605C128.813 3.85205 128.827 3.51605 128.827 3.12405C128.827 2.85805 128.827 2.42405 128.799 1.78005C129.681 2.03205 129.961 2.14405 130.059 2.21405H130.857V1.17805H130.143C129.765 1.17805 129.289 1.19205 128.631 1.27605L128.491 0.78605C129.275 0.870051 129.695 0.884051 130.143 0.884051H130.843C131.249 0.40805 131.291 0.38005 131.389 0.38005C131.515 0.38005 131.571 0.40805 131.991 0.744051C132.355 1.03805 132.383 1.09405 132.383 1.23405C132.383 1.34605 132.327 1.38805 132.061 1.61205V1.87805C132.061 2.11605 132.089 2.53605 132.089 2.74605C132.089 3.02605 131.893 3.19405 131.305 3.19405C131.011 3.19405 130.857 3.04005 130.857 2.80205V2.50805ZM135.211 2.50805H134.385C134.357 2.53605 134.287 2.57805 134.189 2.62005V3.54405C134.189 3.85205 134.273 3.96405 134.987 3.96405C135.897 3.96405 136.163 3.83805 136.513 3.40405C136.709 3.16605 136.849 2.95605 137.045 2.57805C137.087 2.50805 137.171 2.55005 137.157 2.63405C137.031 3.25005 137.017 3.34805 137.017 3.50205C137.017 3.65605 137.045 3.78205 137.087 3.85205C137.213 4.04805 137.269 4.17405 137.269 4.35605C137.269 4.77605 136.905 5.02805 135.001 5.02805C133.335 5.02805 133.097 4.77605 133.097 4.14605C133.097 3.85205 133.111 3.51605 133.111 3.12405C133.111 2.85805 133.111 2.42405 133.083 1.78005C134.007 2.03205 134.287 2.14405 134.399 2.21405H135.211V1.17805H134.553C134.175 1.17805 133.699 1.19205 133.041 1.27605L132.901 0.78605C133.685 0.870051 134.105 0.884051 134.553 0.884051H135.169C135.631 0.366051 135.673 0.352051 135.771 0.352051C135.911 0.352051 135.967 0.366051 136.373 0.71605C136.793 1.08005 136.793 1.09405 136.793 1.22005C136.793 1.33205 136.765 1.37405 136.471 1.61205V1.87805C136.471 2.11605 136.499 2.50805 136.499 2.71805C136.499 2.99805 136.219 3.19405 135.631 3.19405C135.351 3.19405 135.211 3.04005 135.211 2.80205V2.50805ZM137.297 8.62605H131.487C132.355 9.14405 132.523 9.27005 132.523 9.42405C132.523 9.62005 132.439 9.67605 131.879 9.69005C131.151 10.1241 129.835 10.6281 128.771 10.7401C129.359 11.1461 130.199 11.3141 132.327 11.3141C133.909 11.3141 136.149 11.1601 137.843 10.9361C137.927 10.9221 137.955 11.0341 137.885 11.0901C137.381 11.4821 137.171 11.9161 137.087 12.3361C137.017 12.6581 136.947 12.7701 136.653 12.7841C136.289 12.8261 135.659 12.8541 133.545 12.8541C130.353 12.8541 129.667 12.6721 128.953 12.0841C128.491 11.7201 128.169 11.2301 127.931 10.3901C127.259 11.1181 126.615 11.7621 125.971 12.3501C125.831 12.7281 125.733 12.8401 125.579 12.8401C125.411 12.8401 125.243 12.6721 124.445 11.0481C124.823 10.9501 125.103 10.8661 125.299 10.7961C125.733 10.6281 126.167 10.4461 126.629 10.2081V6.26005H125.873C125.369 6.26005 125.159 6.27405 124.627 6.35805L124.501 5.86805C125.131 5.95205 125.369 5.96605 125.873 5.96605H126.475C127.105 5.22405 127.175 5.16805 127.301 5.16805C127.441 5.16805 127.483 5.18205 127.889 5.53205C128.477 6.03605 128.547 6.12005 128.547 6.27405C128.547 6.40005 128.519 6.44205 128.113 6.77805V10.0681C128.253 10.2781 128.421 10.4601 128.617 10.6281C129.303 10.3481 130.493 9.41005 130.941 8.62605H130.255C129.835 8.62605 129.499 8.65405 128.687 8.72405L128.561 8.23405C129.443 8.31805 129.807 8.33205 130.255 8.33205H130.549V6.94605H130.437C129.989 6.94605 129.583 6.96005 129.023 7.04405L128.897 6.55405C129.527 6.62405 130.045 6.65205 130.437 6.65205H130.549C130.549 6.03605 130.535 5.72805 130.493 5.14005C132.047 5.26605 132.243 5.35005 132.243 5.54605C132.243 5.67205 132.187 5.75605 131.893 5.93805V6.65205H133.251C133.251 6.03605 133.237 5.72805 133.195 5.14005C134.749 5.25205 134.945 5.35005 134.945 5.54605C134.945 5.67205 134.889 5.75605 134.623 5.93805V6.65205H135.155C135.827 5.79805 135.855 5.78405 135.953 5.78405C136.065 5.78405 136.093 5.79805 136.513 6.21805C136.947 6.65205 136.975 6.69405 136.975 6.79205C136.975 6.89005 136.919 6.94605 136.835 6.94605H134.623V8.33205H135.477C136.191 7.45005 136.219 7.42205 136.331 7.42205C136.457 7.42205 136.513 7.45005 136.975 7.89805C137.437 8.33205 137.451 8.36005 137.451 8.48605C137.451 8.57005 137.409 8.62605 137.297 8.62605ZM133.251 6.94605H131.893V8.33205H133.251V6.94605ZM125.481 0.64605C125.411 0.59005 125.481 0.492051 125.565 0.492051C127.329 0.618051 128.113 1.43005 128.113 2.32605C128.113 2.98405 127.679 3.36205 127.091 3.36205C126.629 3.36205 126.279 3.06805 126.237 2.38205C126.167 1.41605 125.901 0.954051 125.481 0.64605ZM133.181 8.86405H133.279C135.841 8.86405 136.429 9.67605 136.429 10.2221C136.429 10.6561 136.065 10.8941 135.743 10.8941C135.463 10.8941 135.337 10.8241 135.001 10.4041C134.497 9.76005 133.811 9.27005 133.139 9.01805C133.055 8.99005 133.097 8.86405 133.181 8.86405Z" fill="#DC0B28"/>
<path d="M113.5 12.7419C112.24 11.3839 111.764 10.8379 110.84 9.68995C109.944 8.56995 109.44 7.85595 108.992 7.14195C108.166 5.83995 107.9 5.08395 107.9 3.89395C107.9 2.12995 109.16 0.897949 110.784 0.897949C111.96 0.897949 112.87 1.42995 113.5 2.53595C114.13 1.42995 115.04 0.897949 116.216 0.897949C117.84 0.897949 119.1 2.12995 119.1 3.89395C119.1 5.08395 118.834 5.85395 118.008 7.14195C117.574 7.84195 116.902 8.77995 116.174 9.68995C115.39 10.6559 114.704 11.4399 113.5 12.7419ZM113.5 12.2519C114.396 11.2719 115.278 10.2639 115.922 9.46595C116.874 8.26195 117.406 7.50595 117.742 6.95995C118.512 5.69995 118.75 4.95795 118.75 3.90795C118.75 2.18595 117.448 1.23395 116.216 1.23395C115.11 1.23395 114.228 1.82195 113.738 2.81595C113.64 3.02595 113.612 3.10995 113.5 3.10995C113.388 3.10995 113.36 3.02595 113.262 2.81595C112.772 1.82195 111.89 1.23395 110.784 1.23395C109.552 1.23395 108.25 2.18595 108.25 3.90795C108.25 4.95795 108.488 5.69995 109.258 6.95995C109.608 7.50595 110.126 8.26195 111.092 9.46595C111.736 10.2639 112.604 11.2719 113.5 12.2519Z" fill="#DC0B28"/>
<path d="M96.07 9.04594C95.832 9.04594 95.384 8.84994 95.034 8.52794C94.558 8.07994 94.418 7.93994 94.418 7.65994C94.418 7.51994 94.488 7.35194 94.558 7.35194C94.6 7.35194 94.67 7.39394 94.74 7.43594C95.006 7.58994 95.216 7.65994 95.412 7.65994C95.552 7.65994 95.888 7.54794 96.238 7.39394C96.588 7.23994 96.966 7.04394 97.596 6.72194C98.996 6.02194 99.892 5.74194 100.858 5.74194C102.678 5.74194 104.022 6.81994 104.022 8.33194C104.022 10.8659 100.858 11.6499 98.646 11.9299C98.31 11.9719 97.904 11.9999 97.568 11.9999C97.442 11.9999 97.386 11.9579 97.386 11.8879C97.386 11.8319 97.414 11.8039 97.554 11.7759C99.85 11.3139 102.482 10.0259 102.482 8.02394C102.482 6.95994 101.782 6.35794 100.858 6.35794C99.822 6.35794 98.996 6.77794 97.092 8.37394C96.84 8.58394 96.714 8.70994 96.56 8.84994C96.448 8.96194 96.266 9.04594 96.07 9.04594Z" fill="#DC0B28"/>
<path d="M87.7539 4.07595C87.7539 3.52995 87.7259 2.96995 87.6839 2.32595C87.6419 1.82195 87.4459 1.73795 86.7739 1.68195C86.6479 1.66795 86.6059 1.62595 86.6059 1.58395C86.6059 1.54195 86.6479 1.47195 86.7039 1.41595C86.9419 1.19195 87.5159 0.897949 87.7399 0.897949C87.9079 0.897949 88.1599 0.93995 88.4679 1.12195C89.0279 1.42995 89.1679 1.68195 89.1679 1.90595C89.1679 2.01795 89.1399 2.10195 89.0979 2.21395C89.0279 2.39595 89.0139 2.53595 88.9859 2.80195C88.9579 3.15195 88.9439 3.41795 88.9439 3.79595C89.2239 3.72595 89.4619 3.65595 89.6299 3.58595C89.7279 3.54395 89.8959 3.45995 89.9799 3.36195C90.5959 3.38995 91.1839 3.73995 91.1839 4.15995C91.1839 4.42595 91.0159 4.55195 90.5259 4.69195C90.1899 4.78995 89.5739 4.91595 89.0139 5.04195C89.0559 6.51195 89.0559 7.00195 89.0559 7.35195C89.0559 8.31795 88.9719 9.04595 88.7899 9.67595C88.3279 11.2719 87.0259 12.3359 85.2199 12.8959C85.1079 12.9239 85.0799 12.9239 85.0379 12.9239C84.9959 12.9239 84.9539 12.8959 84.9539 12.8399C84.9539 12.7839 84.9959 12.7419 85.0799 12.6859C86.8019 11.5519 87.4459 10.39 87.6559 8.70995C87.7399 8.03795 87.7679 6.76395 87.7679 5.27995C86.8719 5.46195 86.4519 5.51795 86.0599 5.51795C85.3179 5.51795 84.8139 5.13995 84.2679 4.39795C84.2259 4.34195 84.2259 4.32795 84.2259 4.29995C84.2259 4.25795 84.2539 4.22995 84.2959 4.22995C84.3239 4.22995 84.3659 4.24395 84.4079 4.25795C84.7439 4.41195 85.0099 4.46795 85.2899 4.46795C85.4859 4.46795 85.7379 4.45395 86.0879 4.41195C86.6899 4.32795 87.0679 4.24395 87.7539 4.07595ZM83.3439 6.52595C83.3719 6.45595 83.3999 6.44195 83.4419 6.44195C83.4839 6.44195 83.5119 6.48395 83.5119 6.52595C83.5119 6.56795 83.4979 6.62395 83.4839 6.67995C83.1619 8.58395 83.0359 9.54995 83.0359 9.85795C83.0359 9.96995 83.0359 10.0819 83.0499 10.2219C83.0639 10.3759 83.0919 10.5859 83.0919 10.7119C83.0919 11.2439 82.8119 11.4959 82.4479 11.4959C81.8459 11.4959 81.5799 11.0199 81.2439 10.2919C80.9219 9.56395 80.7959 8.68195 80.7959 7.70195C80.7959 6.94595 80.9499 5.58795 81.1739 4.34195C81.3279 3.57195 81.4119 2.85795 81.4119 2.61995C81.4119 2.28395 81.2999 1.91995 81.2019 1.69595C81.1459 1.56995 81.1319 1.54195 81.1319 1.51395C81.1319 1.48595 81.1599 1.45795 81.1879 1.45795C81.2299 1.45795 81.2859 1.47195 81.4119 1.56995C81.7059 1.79395 82.0419 2.08795 82.2799 2.47995C82.5599 2.92795 82.6719 3.20795 82.6719 3.62795C82.6719 3.89395 82.5459 4.31395 82.2659 5.12595C81.9859 5.95195 81.7899 6.83395 81.7899 7.89795C81.7899 8.26195 81.8319 8.54195 81.9019 8.77995C81.9439 8.93395 82.0279 9.03195 82.0979 9.03195C82.1679 9.03195 82.2379 8.96195 82.3359 8.79395C82.6159 8.27595 82.8819 7.68795 83.3439 6.52595Z" fill="#DC0B28"/>
<path d="M69.9038 12.21V12.77C69.9038 13.176 69.4978 13.33 68.8958 13.33C68.4898 13.33 68.3498 13.204 68.3498 12.84C68.3498 12.56 68.4198 11.006 68.4198 8.90595C68.4198 6.86195 68.4198 6.39995 68.3778 5.83995C69.7638 6.23195 70.1558 6.39995 70.2538 6.55395H71.8078C71.8078 5.50395 71.7938 4.80395 71.7098 4.13195C73.5018 4.32795 73.8518 4.42595 73.8518 4.60795C73.8518 4.76195 73.7678 4.84595 73.3898 5.02795V6.55395H75.1538C75.7838 5.82595 75.8398 5.78395 75.9658 5.78395C76.1058 5.78395 76.1618 5.81195 76.9178 6.41395C77.3238 6.73595 77.3658 6.80595 77.3658 6.93195C77.3658 7.04395 77.2958 7.09995 76.9318 7.40795V9.11595C76.9318 11.58 76.9878 12.322 76.9878 12.574C76.9878 12.98 76.5818 13.134 75.9238 13.134C75.4338 13.134 75.3218 13.008 75.3218 12.644V12.21H69.9038ZM69.9038 9.12995H71.8078V6.84795H70.1838C70.1278 6.88995 70.0298 6.94595 69.9038 6.98795V9.12995ZM69.9038 9.42395V11.916H71.8078V9.42395H69.9038ZM75.3218 11.916V9.42395H73.3898V11.916H75.3218ZM75.3218 9.12995V6.84795H73.3898V9.12995H75.3218ZM68.3358 0.995952H75.1398C75.8118 0.253952 75.8678 0.225952 76.0078 0.225952C76.1478 0.225952 76.2178 0.253952 76.8338 0.743952C77.2818 1.10795 77.3238 1.17795 77.3238 1.28995C77.3238 1.40195 77.3098 1.44395 76.9318 1.75195V2.38195C76.9318 2.98395 76.9738 3.75395 76.9738 3.97795C76.9738 4.38395 76.5398 4.55195 75.8818 4.55195C75.4618 4.55195 75.3218 4.43995 75.3218 4.07595V3.73995H67.9718C67.9578 6.94595 67.7898 8.17795 67.3418 9.52195C66.9358 10.74 66.1098 12.056 64.9898 13.022C64.9198 13.078 64.8078 12.994 64.8638 12.924C65.4098 12.182 65.7458 11.202 65.9558 9.95595C66.1798 8.59795 66.3618 7.16995 66.3618 4.20195C66.3618 1.54195 66.3338 1.00995 66.2498 0.351952C67.8318 0.715952 68.2378 0.869952 68.3358 0.995952ZM75.3218 1.28995H68.2518C68.1958 1.34595 68.0978 1.40195 67.9718 1.45795V3.44595H75.3218V1.28995Z" fill="#DC0B28"/>
<path d="M54.5882 6.106C54.5742 5.812 54.5602 5.518 54.5322 5.21C54.4902 4.734 54.4062 4.468 54.3362 4.356C54.2102 4.16 53.8462 3.964 53.5942 3.894C53.4682 3.852 53.4262 3.838 53.4262 3.782C53.4262 3.74 53.4542 3.726 53.4962 3.698C53.8742 3.474 54.1962 3.432 54.4202 3.432C54.6302 3.432 54.8962 3.516 55.2462 3.726C55.6942 4.006 55.9882 4.272 55.9882 4.566C55.9882 4.804 55.9042 5.014 55.8902 5.168C55.8762 5.308 55.8622 5.574 55.8622 5.798C56.7722 5.56 58.0042 5.238 59.0122 4.986C59.0682 4.356 59.0682 3.992 59.0682 3.516C59.0682 3.11 59.0262 2.704 58.9842 2.396C58.9282 1.976 58.6482 1.752 58.2422 1.626C58.1582 1.598 58.1162 1.57 58.1162 1.528C58.1162 1.486 58.1302 1.444 58.1862 1.402C58.4522 1.192 58.8302 1.052 59.0262 1.052C59.1662 1.052 59.5022 1.15 59.8942 1.43C60.5102 1.822 60.7342 2.088 60.7342 2.312C60.7342 2.396 60.7062 2.522 60.5942 2.662C60.4822 2.802 60.4542 2.956 60.4262 3.264C60.3982 3.67 60.3702 4.076 60.3142 4.664C60.6642 4.594 60.9862 4.524 61.2242 4.468C61.3782 4.426 61.5042 4.384 61.6302 4.314C61.7422 4.258 61.8822 4.188 62.0502 4.188C62.3162 4.188 62.6942 4.272 63.1702 4.482C63.6182 4.678 63.8002 4.902 63.8002 5.21C63.8002 5.546 63.5062 5.686 63.1702 5.686C63.0302 5.686 62.8762 5.672 62.6522 5.658C62.2602 5.63 61.9522 5.602 61.6862 5.602C61.2102 5.602 60.8602 5.63 60.2442 5.714C60.1042 7.24 59.9362 7.982 59.7262 8.5C59.5162 8.976 59.0822 9.326 58.6062 9.326C58.3542 9.326 58.1862 9.13 58.0742 8.864C57.9202 8.416 57.7382 8.206 57.1782 7.786C57.1222 7.744 57.1082 7.716 57.1082 7.688C57.1082 7.66 57.1222 7.632 57.1642 7.632C57.1922 7.632 57.2342 7.646 57.3182 7.674C57.6402 7.758 58.0182 7.842 58.2422 7.842C58.5362 7.842 58.7042 7.688 58.7742 7.324C58.8722 6.862 58.9142 6.414 58.9422 5.938C57.7522 6.19 56.9682 6.414 55.8482 6.75C55.8342 7.408 55.8062 7.884 55.8062 8.5C55.8062 9.354 55.8762 9.9 56.1142 10.166C56.3802 10.446 56.7442 10.572 57.5562 10.572C58.1022 10.572 58.6762 10.53 59.3902 10.39C59.6562 10.334 59.8802 10.264 60.0762 10.18C61.0002 10.236 61.5882 10.586 61.5882 11.048C61.5882 11.44 61.3642 11.594 60.8322 11.692C60.1882 11.79 59.4602 11.846 58.5782 11.846C57.5142 11.846 56.7302 11.734 56.0722 11.356C55.3722 10.964 54.9802 10.334 54.8122 9.662C54.6862 9.214 54.6442 8.472 54.6022 7.114C54.0702 7.31 53.4822 7.576 53.0762 7.828C52.9082 7.926 52.7822 7.982 52.6422 7.982C52.3902 7.982 51.9842 7.758 51.6062 7.45C51.1862 7.128 51.0322 6.75 51.0322 6.54C51.0322 6.484 51.0322 6.4 51.0462 6.316C51.0602 6.274 51.0742 6.246 51.1022 6.246C51.1302 6.246 51.1302 6.246 51.1582 6.274C51.3962 6.484 51.8162 6.666 52.0822 6.666C52.3482 6.666 52.6282 6.624 53.3002 6.456C53.6642 6.372 54.1262 6.232 54.5882 6.106Z" fill="#DC0B28"/>
<path d="M49.6739 7.77206H44.6059C44.5779 7.88406 44.4659 7.96806 44.2279 8.12206V9.78806H46.7479C47.5879 8.80806 47.6299 8.76606 47.7839 8.76606C47.9519 8.76606 47.9939 8.79406 48.5539 9.28406C49.0859 9.76006 49.1139 9.80206 49.1139 9.92806C49.1139 10.0261 49.0719 10.0821 48.9599 10.0821H44.2279C44.2419 11.3561 44.2699 12.2661 44.2699 12.6861C44.2699 13.0921 43.9899 13.2741 43.2059 13.2741C42.6879 13.2741 42.5199 13.1621 42.5199 12.7421C42.5199 12.3921 42.5479 11.2021 42.5619 10.0821H40.5179C39.8039 10.0821 39.1879 10.0961 38.3759 10.1801L38.2499 9.69006C39.1319 9.77406 39.7759 9.78806 40.5179 9.78806H42.5619V9.62006C42.5619 8.76606 42.5479 8.20606 42.5199 7.77206H39.5519C38.8379 7.77206 38.2219 7.78606 37.4099 7.87006L37.2839 7.38006C38.1659 7.46406 38.8099 7.47806 39.5519 7.47806H43.8639C44.1999 6.65206 44.4239 6.05006 44.6199 5.42006C44.7039 5.14006 44.7459 4.95806 44.7879 4.77606H39.2719C38.5579 4.77606 37.9419 4.79006 37.1299 4.87406L37.0039 4.38406C37.8859 4.46806 38.5299 4.48206 39.2719 4.48206H42.5059V2.62006H40.5179C39.8039 2.62006 39.1879 2.63406 38.3759 2.71806L38.2499 2.22806C39.1319 2.31206 39.7759 2.32606 40.5179 2.32606H42.5059V1.38806C42.5059 1.02406 42.5059 0.730059 42.4219 0.0860596C44.4939 0.226059 44.7599 0.352059 44.7599 0.562059C44.7599 0.730059 44.6899 0.828059 44.1859 1.05206V2.32606H46.3699C47.2099 1.34606 47.2519 1.31806 47.3919 1.31806C47.5319 1.31806 47.5879 1.34606 48.1339 1.82206C48.6659 2.29806 48.6939 2.34006 48.6939 2.46606C48.6939 2.56406 48.6519 2.62006 48.5399 2.62006H44.1859V4.48206H47.5599C48.4139 3.46006 48.4559 3.43206 48.6099 3.43206C48.7639 3.43206 48.8059 3.43206 49.4079 3.97806C49.9399 4.45406 49.9679 4.49606 49.9679 4.62206C49.9679 4.72006 49.9259 4.77606 49.8139 4.77606H45.2639C46.7619 5.29406 46.8459 5.40606 46.8459 5.56006C46.8459 5.72806 46.7619 5.81206 46.2579 5.89606C45.6559 6.49806 45.1519 7.00206 44.6619 7.47806H47.4199C48.2879 6.45606 48.3299 6.41406 48.4699 6.41406C48.6239 6.41406 48.6659 6.44206 49.2679 6.97406C49.7999 7.45006 49.8279 7.49206 49.8279 7.61806C49.8279 7.71606 49.7859 7.77206 49.6739 7.77206ZM40.2519 4.98606C40.1819 4.93006 40.2379 4.84606 40.3219 4.84606C41.8759 4.95806 42.6599 5.61606 42.6599 6.45606C42.6599 7.07206 42.1979 7.40806 41.7219 7.40806C41.3299 7.40806 41.0219 7.19806 40.9659 6.65206C40.8819 5.84006 40.6299 5.28006 40.2519 4.98606Z" fill="#DC0B28"/>
<path d="M152.126 19.616V21.36H148.43V32.032H146.254V21.36H142.59V19.616H152.126Z" fill="#DC0B28"/>
<path d="M141.601 19.616V21.328H135.601V24.672H140.145V26.384H135.601V32.032H133.425V19.616H141.601Z" fill="#DC0B28"/>
<path d="M130.445 19.616V32.032H128.269V19.616H130.445Z" fill="#DC0B28"/>
<path d="M125.474 23.04L123.378 23.536C123.074 21.968 122.226 21.072 120.802 21.072C118.914 21.072 117.65 22.672 117.65 25.84C117.65 28.992 118.882 30.608 120.77 30.608C122.514 30.608 123.346 29.216 123.538 27.232H120.642V25.568H125.554V32.112H124.114L123.874 30.304C123.234 31.584 122.034 32.272 120.546 32.272C117.458 32.272 115.362 29.968 115.362 25.856C115.362 21.76 117.586 19.408 120.77 19.408C123.346 19.408 124.946 20.848 125.474 23.04Z" fill="#DC0B28"/>
<path d="M109.266 28.08H103.33C103.346 29.744 104.082 30.848 105.538 30.848C106.45 30.848 107.09 30.336 107.394 29.184L109.218 29.712C108.674 31.392 107.474 32.256 105.522 32.256C102.898 32.256 101.362 30.576 101.362 27.696C101.362 24.832 102.978 23.056 105.346 23.056C107.586 23.056 109.266 24.688 109.266 27.664V28.08ZM103.362 26.752H107.298C107.202 25.28 106.578 24.448 105.378 24.448C104.162 24.448 103.458 25.344 103.362 26.752Z" fill="#DC0B28"/>
<path d="M93.951 23.248V24.784C94.655 23.744 95.695 23.056 96.831 23.056C98.287 23.056 99.343 24 99.343 25.696V32.032H97.279V26.256C97.279 25.248 96.847 24.784 96.063 24.784C95.359 24.784 94.559 25.36 94.015 26.272V32.032H91.999V23.248H93.951Z" fill="#DC0B28"/>
<path d="M89.4212 23.248V32.032H87.4052V23.248H89.4212ZM89.5012 19.616V21.68H87.3252V19.616H89.5012Z" fill="#DC0B28"/>
<path d="M83.7428 20.384V23.248H85.7108V24.72H83.7428V29.536C83.7428 30.416 84.0948 30.8 84.8308 30.8C85.1668 30.8 85.4868 30.784 85.8548 30.704L85.7748 32.144C85.2148 32.224 84.7348 32.24 84.2068 32.24C82.5428 32.24 81.7588 31.52 81.7588 29.904V24.72H80.4468V23.248H81.7588V20.832L83.7428 20.384Z" fill="#DC0B28"/>
<path d="M73.4041 23.248V24.784C74.1081 23.744 75.1481 23.056 76.2841 23.056C77.7401 23.056 78.7961 24 78.7961 25.696V32.032H76.7321V26.256C76.7321 25.248 76.3001 24.784 75.5161 24.784C74.8121 24.784 74.0121 25.36 73.4681 26.272V32.032H71.4521V23.248H73.4041Z" fill="#DC0B28"/>
<path d="M69.4221 28.08H63.4861C63.5021 29.744 64.2381 30.848 65.6941 30.848C66.6061 30.848 67.2461 30.336 67.5501 29.184L69.3741 29.712C68.8301 31.392 67.6301 32.256 65.6781 32.256C63.0541 32.256 61.5181 30.576 61.5181 27.696C61.5181 24.832 63.1341 23.056 65.5021 23.056C67.7421 23.056 69.4221 24.688 69.4221 27.664V28.08ZM63.5181 26.752H67.4541C67.3581 25.28 66.7341 24.448 65.5341 24.448C64.3181 24.448 63.6141 25.344 63.5181 26.752Z" fill="#DC0B28"/>
<path d="M59.4525 19.392V32.032H57.4365V19.392H59.4525Z" fill="#DC0B28"/>
<path d="M49.7561 25.968L47.8681 25.456C48.3161 23.872 49.5961 23.04 51.5001 23.04C53.7721 23.04 54.9081 24 54.9081 25.952V29.44C54.9081 30.464 54.9721 31.296 55.0521 32.032H53.1961C53.1321 31.648 53.1001 31.392 53.0521 30.88C52.4281 31.776 51.4041 32.24 50.2841 32.24C48.6681 32.24 47.5801 31.232 47.5801 29.632C47.5801 28.096 48.5401 27.104 50.4441 26.736C51.1961 26.592 52.0601 26.512 52.9561 26.48V25.984C52.9561 24.88 52.4921 24.432 51.4361 24.432C50.6041 24.432 49.9321 24.96 49.7561 25.968ZM52.9561 29.36V27.728C52.1081 27.744 51.4841 27.856 50.9401 27.984C49.9961 28.208 49.5001 28.688 49.5001 29.472C49.5001 30.304 49.9961 30.8 50.9081 30.8C51.6761 30.8 52.4441 30.32 52.9561 29.36Z" fill="#DC0B28"/>
<path d="M47.1082 19.616L43.3162 32.032H40.6282L36.8682 19.616H39.1882L40.8042 25.456C41.2682 27.072 41.5882 28.528 41.9722 30.048H42.1962C42.5482 28.56 42.9002 27.12 43.3482 25.52L44.9802 19.616H47.1082Z" fill="#DC0B28"/>
<path d="M20.0404 18.4649C20.336 18.1748 20.8109 18.1791 21.101 18.4746L27.5355 25.0313C27.8234 25.3248 27.8212 25.796 27.5307 26.0869L21.0961 32.5283C20.8034 32.8214 20.3286 32.822 20.0355 32.5293C19.7426 32.2366 19.7429 31.7618 20.0355 31.4688L25.9438 25.5518L20.0307 19.5254C19.7406 19.2298 19.7449 18.755 20.0404 18.4649Z" fill="#DC0B28"/>
<path d="M13.9745 18.4649C14.2701 18.1748 14.7449 18.1791 15.0351 18.4746L21.4696 25.0313C21.7575 25.3248 21.7553 25.796 21.4647 26.0869L15.0302 32.5283C14.7375 32.8214 14.2627 32.822 13.9696 32.5293C13.6767 32.2366 13.677 31.7618 13.9696 31.4688L19.8778 25.5518L13.9647 19.5254C13.6747 19.2298 13.679 18.755 13.9745 18.4649Z" fill="#DC0B28"/>
</g>
<defs>
<linearGradient id="paint0_linear_146_28338" x1="-24.5" y1="65" x2="350.5" y2="65" gradientUnits="userSpaceOnUse">
<stop stop-color="#FF627D"/>
<stop offset="1" stop-color="#FB7596"/>
</linearGradient>
</defs>
</svg>
