<svg width="326" height="27" viewBox="0 0 326 27" fill="none" xmlns="http://www.w3.org/2000/svg">
<mask id="mask0_146_28187" style="mask-type:alpha" maskUnits="userSpaceOnUse" x="0" y="0" width="326" height="27">
<path d="M0 0H326V27H0V0Z" fill="#D9D9D9"/>
</mask>
<g mask="url(#mask0_146_28187)">
<path d="M-14.5 1C-14.5 -1.76142 -12.2614 -4 -9.5 -4L335.5 -4C338.261 -4 340.5 -1.76142 340.5 1V262C340.5 264.761 338.261 267 335.5 267H-9.5C-12.2614 267 -14.5 264.761 -14.5 262L-14.5 1Z" fill="#FFFEFE"/>
<path d="M-14.5 -6C-14.5 -8.76142 -12.2614 -11 -9.5 -11L335.5 -11C338.261 -11 340.5 -8.76142 340.5 -6V34C340.5 36.7614 338.261 39 335.5 39L-9.5 39C-12.2614 39 -14.5 36.7614 -14.5 34L-14.5 -6Z" fill="#FFFEFE"/>
<path d="M2.5 20.7954L17.2954 5.99996L18 6.7045L3.20454 21.5L2.5 20.7954Z" fill="#DC0B28"/>
<path d="M18 20.7954L3.20456 5.99996L2.50001 6.7045L17.2955 21.5L18 20.7954Z" fill="#DC0B28"/>
<path d="M208.407 15.438H201.927C200.145 15.438 199.461 15.654 199.281 15.654C199.065 15.654 198.921 15.546 198.867 15.276C198.777 14.862 198.669 14.016 198.597 13.098C199.767 13.278 200.667 13.314 202.485 13.314H208.281C209.649 13.314 211.035 13.278 212.421 13.26C212.691 13.242 212.745 13.296 212.745 13.512C212.781 14.052 212.781 14.664 212.745 15.204C212.745 15.42 212.673 15.492 212.421 15.474C211.071 15.456 209.739 15.438 208.407 15.438Z" fill="#DC0B28"/>
<path d="M190.389 18.678H191.235C191.955 18.678 192.747 18.66 193.431 18.66C193.737 18.642 193.809 18.696 193.827 18.984C193.845 19.326 193.845 19.776 193.827 20.118C193.809 20.46 193.755 20.478 193.485 20.478C192.675 20.478 191.811 20.46 190.983 20.46H184.359C183.621 20.46 182.919 20.46 182.037 20.496C181.839 20.496 181.767 20.406 181.731 20.136C181.659 19.758 181.641 19.182 181.641 18.624C182.667 18.696 183.333 18.696 184.233 18.696H188.409L189.021 14.322H186.123C185.421 14.322 184.611 14.358 184.143 14.376C183.927 14.394 183.855 14.34 183.819 14.034C183.765 13.656 183.729 13.08 183.693 12.486C184.899 12.54 185.439 12.576 186.195 12.576H188.679C189.327 12.576 189.489 12.522 189.741 12.414C189.813 12.36 189.885 12.342 189.939 12.342C190.029 12.342 190.119 12.396 190.209 12.45C190.533 12.684 191.019 13.08 191.307 13.44C191.415 13.548 191.469 13.656 191.469 13.764C191.469 13.872 191.415 13.98 191.307 14.088C191.073 14.34 191.019 14.538 190.947 14.988L190.389 18.678Z" fill="#DC0B28"/>
<path d="M171.255 11.5501H167.691C166.557 11.5501 165.765 11.5861 164.937 11.6221C164.757 11.6221 164.703 11.5141 164.685 11.2441C164.595 10.6861 164.577 10.0741 164.577 9.33606C165.711 9.42606 166.557 9.44406 167.637 9.44406H171.201C172.587 9.44406 173.667 9.39006 174.441 9.35406C174.585 9.35406 174.639 9.44406 174.639 9.66006C174.675 10.1821 174.675 10.7401 174.639 11.2621C174.621 11.5141 174.585 11.6041 174.405 11.6041C173.559 11.5681 172.407 11.5501 171.255 11.5501ZM172.767 19.2001H166.035C164.865 19.2001 163.677 19.2181 162.795 19.2901C162.615 19.2901 162.561 19.1821 162.525 18.9481C162.453 18.5341 162.417 17.9221 162.363 16.9681C163.659 17.0581 164.955 17.0761 166.089 17.0761H172.641C174.639 17.0761 175.863 17.0221 176.691 16.9861C176.925 16.9861 176.979 17.0761 176.979 17.3101C177.015 17.8141 177.015 18.3721 176.979 18.8761C176.979 19.1461 176.943 19.2541 176.709 19.2541C175.845 19.2181 173.991 19.2001 172.767 19.2001Z" fill="#DC0B28"/>
<path d="M152.301 12.5219C153.075 11.3339 153.489 10.5239 154.029 9.33595C154.425 8.39995 154.569 7.96795 154.713 7.12195C155.613 7.44595 156.549 7.89595 156.981 8.25595C157.107 8.34595 157.161 8.45395 157.161 8.56195C157.161 8.70595 157.089 8.84995 156.963 8.95795C156.711 9.17395 156.567 9.40795 156.153 10.1639C155.469 11.4779 154.803 12.7019 154.101 13.7279C155.109 14.5199 155.595 14.9699 156.747 16.1759C156.819 16.2659 156.855 16.3379 156.855 16.4279C156.855 16.4999 156.819 16.5719 156.765 16.6619C156.405 17.1299 156.045 17.5259 155.667 17.9399C155.595 18.0299 155.523 18.0659 155.451 18.0659C155.361 18.0659 155.289 18.0119 155.199 17.9039C154.353 16.8959 153.633 16.1939 152.841 15.5279C150.789 18.1019 148.773 19.8659 146.685 21.1439C146.541 21.2339 146.397 21.2879 146.271 21.2879C146.145 21.2879 146.037 21.2519 145.929 21.1619C145.407 20.7299 144.831 20.3339 144.309 20.1719C147.117 18.5339 149.079 16.8599 151.095 14.2679C149.961 13.4219 149.061 12.8459 147.585 12.1259C148.107 11.4599 148.539 10.9019 148.773 10.6499C148.827 10.5959 148.881 10.5599 148.953 10.5599C149.025 10.5599 149.097 10.5959 149.169 10.6319C150.105 11.0999 151.239 11.7839 152.301 12.5219Z" fill="#DC0B28"/>
<path d="M128.191 9.78604C128.587 9.30004 129.109 8.74204 129.451 8.38204C129.523 8.29204 129.613 8.23804 129.703 8.23804C129.775 8.23804 129.847 8.27404 129.937 8.32804C130.855 8.81404 132.349 9.91204 133.375 10.884C133.483 10.992 133.537 11.064 133.537 11.136C133.537 11.208 133.501 11.28 133.429 11.37C133.159 11.73 132.565 12.45 132.313 12.72C132.223 12.81 132.169 12.864 132.097 12.864C132.025 12.864 131.953 12.81 131.863 12.72C130.783 11.604 129.487 10.578 128.191 9.78604ZM128.587 18.768C129.505 18.516 130.063 18.354 131.017 17.868C133.213 16.734 134.383 15.978 136.201 14.52C138.397 12.738 139.603 11.586 141.133 9.62404C141.241 10.524 141.403 11.136 141.637 11.73C141.691 11.856 141.727 11.964 141.727 12.072C141.727 12.234 141.637 12.378 141.439 12.612C140.485 13.728 138.937 15.168 137.299 16.428C135.805 17.598 134.293 18.606 131.863 19.956C131.053 20.442 130.819 20.622 130.657 20.784C130.549 20.892 130.441 20.964 130.333 20.964C130.243 20.964 130.135 20.892 130.027 20.766C129.577 20.262 129.019 19.524 128.587 18.768Z" fill="#DC0B28"/>
<path d="M118.831 11.6759V17.6339C118.831 18.8759 118.849 19.9379 118.885 21.3779C118.903 21.6119 118.813 21.6839 118.615 21.6839C118.039 21.7199 117.391 21.7199 116.815 21.6839C116.617 21.6839 116.545 21.6119 116.563 21.3959C116.581 20.0999 116.635 18.9299 116.635 17.7059V13.5119C115.051 14.8439 113.125 16.2119 111.685 16.9679C111.595 17.0219 111.505 17.0399 111.415 17.0399C111.271 17.0399 111.163 16.9859 111.037 16.8599C110.623 16.4459 110.029 16.0859 109.489 15.7979C111.973 14.5199 113.503 13.4759 115.159 12.1079C116.581 10.9379 117.877 9.67794 118.993 8.34594C119.605 7.62594 119.839 7.26594 120.127 6.49194C120.937 6.94194 121.729 7.42794 122.125 7.75194C122.233 7.82394 122.269 7.93194 122.269 8.02194C122.269 8.16594 122.161 8.32794 122.017 8.41794C121.711 8.61594 121.423 8.88594 120.937 9.40794C120.235 10.2539 119.569 10.9559 118.831 11.6759Z" fill="#DC0B28"/>
<path d="M99.716 9.10195L102.884 9.02995C103.406 9.01195 103.64 8.90395 103.874 8.75995C104 8.66994 104.09 8.63395 104.18 8.63395C104.27 8.63395 104.378 8.68795 104.504 8.77795C104.9 9.01195 105.404 9.49794 105.728 9.87595C105.836 9.98395 105.872 10.0919 105.872 10.1999C105.872 10.3079 105.818 10.4159 105.674 10.5419C105.494 10.7039 105.314 10.8839 105.134 11.2259C104.36 12.7559 103.514 14.2319 102.488 15.5819C103.226 16.1759 103.91 16.8059 104.432 17.3999C104.504 17.4719 104.54 17.5619 104.54 17.6519C104.54 17.7239 104.504 17.8139 104.432 17.8859C104.18 18.1919 103.622 18.7679 103.316 19.0199C103.244 19.0739 103.172 19.1099 103.1 19.1099C103.046 19.1099 102.974 19.0739 102.902 19.0019C102.47 18.4979 101.75 17.7779 101.156 17.2559C99.32 19.2359 97.466 20.6399 95.414 21.7559C95.252 21.8459 95.108 21.9179 94.964 21.9179C94.856 21.9179 94.748 21.8639 94.622 21.7559C94.046 21.2879 93.542 21.0539 92.912 20.8379C95.702 19.4159 97.502 18.1199 99.536 15.9599C98.852 15.4019 98.042 14.8439 96.944 14.2679C97.34 13.8359 97.718 13.3679 98.132 12.9899C98.204 12.9179 98.276 12.8639 98.366 12.8639C98.42 12.8639 98.474 12.8999 98.546 12.9359C99.194 13.2419 99.986 13.7639 100.868 14.3759C101.732 13.2599 102.398 12.0899 102.974 10.8119L98.51 10.9019C97.034 12.7919 95.864 14.0339 94.658 14.9519C94.532 15.0419 94.424 15.1139 94.298 15.1139C94.208 15.1139 94.1 15.0779 94.01 14.9879C93.56 14.6639 93.092 14.4119 92.498 14.1599C95.018 12.1619 96.368 10.5059 97.592 8.50795C98.168 7.53595 98.402 7.04995 98.564 6.29395C99.176 6.50994 100.112 6.81595 100.67 7.17595C100.814 7.24794 100.868 7.35595 100.868 7.46395C100.868 7.58994 100.778 7.73395 100.652 7.82394C100.49 7.93195 100.364 8.07594 100.274 8.20195C100.13 8.45395 100.022 8.63395 99.716 9.10195Z" fill="#DC0B28"/>
<path d="M74.9121 9.78604C75.3081 9.30004 75.8301 8.74204 76.1721 8.38204C76.2441 8.29204 76.3341 8.23804 76.4241 8.23804C76.4961 8.23804 76.5681 8.27404 76.6581 8.32804C77.5761 8.81404 79.0701 9.91204 80.0961 10.884C80.2041 10.992 80.2581 11.064 80.2581 11.136C80.2581 11.208 80.2221 11.28 80.1501 11.37C79.8801 11.73 79.2861 12.45 79.0341 12.72C78.9441 12.81 78.8901 12.864 78.8181 12.864C78.7461 12.864 78.6741 12.81 78.5841 12.72C77.5041 11.604 76.2081 10.578 74.9121 9.78604ZM75.3081 18.768C76.2261 18.516 76.7841 18.354 77.7381 17.868C79.9341 16.734 81.1041 15.978 82.9221 14.52C85.1181 12.738 86.3241 11.586 87.8541 9.62404C87.9621 10.524 88.1241 11.136 88.3581 11.73C88.4121 11.856 88.4481 11.964 88.4481 12.072C88.4481 12.234 88.3581 12.378 88.1601 12.612C87.2061 13.728 85.6581 15.168 84.0201 16.428C82.5261 17.598 81.0141 18.606 78.5841 19.956C77.7741 20.442 77.5401 20.622 77.3781 20.784C77.2701 20.892 77.1621 20.964 77.0541 20.964C76.9641 20.964 76.8561 20.892 76.7481 20.766C76.2981 20.262 75.7401 19.524 75.3081 18.768Z" fill="#DC0B28"/>
<path d="M60.6559 11.2261L60.6019 17.8501C61.9879 17.3101 63.3379 16.6801 65.1919 15.5821C67.2619 14.3581 68.5039 13.3501 69.9619 11.9101C69.9799 12.7381 70.0879 13.4581 70.2499 13.9981C70.3579 14.3401 70.3039 14.5201 70.0699 14.7181C68.5939 15.9601 67.0999 16.9501 65.5699 17.8141C64.2019 18.6241 62.7979 19.3261 61.1599 20.0461C60.7099 20.2441 60.3859 20.4241 60.1519 20.6221C60.0439 20.7121 59.9359 20.7661 59.8279 20.7661C59.7199 20.7661 59.6299 20.7121 59.5219 20.6221C59.1079 20.2801 58.7479 19.8841 58.4239 19.3981C58.3519 19.3081 58.3159 19.2181 58.3159 19.1101C58.3159 19.0201 58.3519 18.9121 58.4059 18.8041C58.4779 18.6241 58.4779 18.2821 58.4779 17.7781L58.5139 11.0101C58.5139 9.53405 58.4599 8.65205 58.3159 7.87805C59.3239 8.00405 60.2419 8.14805 60.6559 8.27405C60.8359 8.32805 60.9439 8.43605 60.9439 8.61605C60.9439 8.70605 60.9079 8.83205 60.8539 8.99405C60.7279 9.35405 60.6559 9.94805 60.6559 11.2261Z" fill="#DC0B28"/>
<path d="M37.292 18.12C39.182 16.446 40.478 14.394 41.198 12.756C41.684 11.658 41.954 10.74 42.008 10.092C42.926 10.416 43.736 10.74 44.24 11.01C44.402 11.082 44.456 11.19 44.456 11.298C44.456 11.424 44.384 11.55 44.276 11.658C44.078 11.856 43.934 12.108 43.646 12.756C42.584 15.15 41.522 16.986 39.794 18.804C39.632 18.984 39.47 19.074 39.29 19.074C39.146 19.074 39.02 19.02 38.876 18.894C38.516 18.606 37.94 18.318 37.292 18.12ZM46.49 11.28C47.138 10.848 47.624 10.506 47.93 10.308C48.02 10.236 48.11 10.2 48.182 10.2C48.272 10.2 48.344 10.236 48.452 10.344C50.414 12.306 51.926 14.646 52.97 16.95C53.024 17.04 53.042 17.112 53.042 17.202C53.042 17.31 52.988 17.4 52.862 17.49C52.52 17.76 51.944 18.138 51.368 18.444C51.134 18.552 51.008 18.516 50.936 18.282C49.604 15.276 48.272 13.17 46.49 11.28ZM49.082 8.81402L50.036 8.14802C50.126 8.07602 50.198 8.09402 50.306 8.18402C50.864 8.61602 51.512 9.33602 52.016 10.11C52.088 10.218 52.088 10.308 51.962 10.398L51.206 10.956C51.08 11.046 50.99 11.028 50.9 10.902C50.36 10.074 49.784 9.39002 49.082 8.81402ZM50.738 7.62602L51.638 6.97802C51.746 6.90602 51.8 6.92402 51.908 7.01402C52.574 7.51802 53.222 8.23802 53.618 8.86802C53.69 8.97602 53.708 9.08402 53.564 9.19202L52.844 9.75002C52.7 9.85802 52.61 9.80402 52.538 9.69602C52.052 8.92202 51.476 8.23802 50.738 7.62602Z" fill="#DC0B28"/>
<path d="M224.42 4.88626C227.3 3.13626 231.06 4.03626 232.82 6.89626L233.35 7.75626L234.21 7.23626C237.09 5.48626 240.85 6.38626 242.61 9.24626C244.37 12.1163 243.46 15.8563 240.59 17.6063L229.31 24.4763L222.93 14.1163L222.4 13.2463C220.64 10.3863 221.54 6.64626 224.42 4.88626Z" fill="#E7093C"/>
<path d="M252.439 2.3263C251.389 1.6863 250.029 2.0163 249.389 3.0663L249.199 3.3863L248.889 3.1963C247.839 2.5563 246.479 2.8863 245.839 3.9363C245.199 4.9863 245.529 6.3563 246.579 6.9963L250.679 9.5163L252.999 5.7163L253.189 5.3963C253.829 4.3463 253.499 2.9763 252.449 2.3363L252.439 2.3263Z" fill="#E7093C"/>
</g>
</svg>
